<svg xmlns="http://www.w3.org/2000/svg" width="500" height="250" viewBox="0 0 500 250">
  <path d="M253.064 69.31c.115.048.317.128.848-.14-.025.02-.06.062-.076.093.076.043.076.043.23-.008-.045.025-.103.05-.147.076-.24.15-.24.15-.51.53.11-.07.23-.03.34-.01.09.03.19.05.29.02.49-.17.75-.64 1.16-.94.04.07.04.07.2.17-.2.5-.97.35-1.06.96.02.02.05.04.07.05.12.03.25.03.38.01.13-.01.25-.02.37.01.45.11.84.41 1.29.52.08.02.29.05.46.05.99-.02.95-.68.95-.69-.07-.27-.71-.25-1.09-.24-.77.02-1.07-.04-.77-.44.73.01 1.42.29 2.15.26-.09.09-.09.09-.14.17.01.02.02.05.03.07.27 0 .92-.03 1.19-.41-.05-.03-.05-.03-.18-.01-.01-.02-.01-.04-.01-.06.33-.15.39-.17.95-.31.14-.04.48-.12.66-.19.07-.03.17-.06.23-.09.21-.09.24-.37.45-.46 1.01-.42 2.12-.52 3.1-1.01l.39-.2c-.58-.31-.97-.45-1.55-.52-.24-.02-.4-.04-.54-.04-.26 0-.46.06-1.02.23-.19-.14-.53-.23-1.79.08.01.02.02.06.03.08-.1.14-.27.24-.32.41-.08-.02-.08-.02-.03-.46-.21-.24-1.61.22-1.94.72 0 .02.01.05.02.07.04 0 .11-.01.14-.02-.02.01-.05.02-.07.04-.96.43-.37.72-.37.72.27.08.71-.07.91-.13-.07.04-.16.11-.23.15l-.08.1c.04.04.11.09.17.11-.04.1-.17.2-.27.26.23-.25-.01-.29-.04-.29-.18-.02-.42.1-.51.15.01.01.03.02.05.03-.15.34-1.54.19-1.58.02-.02-.1.11-.4.28-.34.24.1.24.1.67-.12-.08-.04-.17-.03-.25-.07.06-.07.08-.09.25-.17l-.02.06c.1-.03.1-.03.27-.12-.02-.01-.05-.02-.06-.02-.03-.13.08-.23.06-.36-.27-.04-.81.238-.81.238-.24.16-.29.45-.47.65-.06-.02-.06-.02-.32-.02-.02-.02-.02-.04-.03-.06-.38.2-.38.923-.96.81-.02-.03-.04-.09-.04-.12-.09-.03-.11-.04-.5.14.31-.24.68-.4 1-.63-.18-.27-.36-.41-1.24-.06.2-.15.23-.17.27-.26-.06-.12-.05-.12.05-.2-.29.106-.56.27-.85.39.01.03.02.06.022.096-.046.09-.106.17-.15.256.01.03.01.06.022.08.08.02.12.03.34-.01-.46.28-.42.35-.38.47zm6.342-.77c.1-.042.106-.008.117.006-.01.006-.017.014-.022.017-.16.114-.24.152-.23.114 0-.017.02-.046.05-.058-.17.11-.36.26-.29.27h.01c-.07.04-.1.05-.13.05-.05-.03.32-.34.52-.41zm3.844-.695c-.065.01-.165.027-.348.205.012.026.025.058.04.082.115.015.24-.003.353.042.008.02.008.056.01.086-.76.425-1.672.315-2.434.73.24.168.26.194.33.368-.02-.005-.02-.005-.46.264.36 1.592 3.23.433 2.98 2.145-.05.374.01.74 0 1.114 0 .35-.01.41-.07.68.83-.06.98.05 1.23.54-.74-.17-.74-.17-.92-.16-.03.12-.03.12.06.38-.07.02-.07.02-.3-.11-.31.66.17 1.04.75.84.23-.07.32-.22.38-.32-.21.02-.28 0-.31-.18.03-.01.05-.03.08-.04.28.08.28.08.41.17 0 .01-.01.76-.06.83-1.09-.38-1.51 1.5-1.26 2.29.08.24.33.5.54.64.25 2.06 1.07 3.41 4.51 4.26.06-.18.12-.41.17-.59.29-.9.75-1.74 1.04-2.64.09-.29.01-.74.15-1.01.22-.41.85-.49 1.15-.53.3-.04.51-.07.72-.22.09-.06.19-.17.26-.23.47-.43.64-1.06 1.12-1.48.2-.18.6-.23.85-.31 1.79-.53 2.14-.83 2.53-1.71-.6.01-.6.01-.76-.16.18.05.36.03.53.02.12 0 .24-.01.36 0-.31-.67-.98-1.05-1.12-1.12.15-.34-.16-.59-.17-.89.05-.02.12-.02.18-.01-.15-.61-.15-.61.19-1.06-.41-.36-.44-.35-.65-.26.01.13.01.13.4.42-.38 0-.38 0-.45-.05 0-.08 0-.08-.9-1.02.01-.02.04-.05.05-.07.23.13.41.35.69.42-.3-.25-.36-.91-.89-.76-.42-.24-.49-.73-.76-1.07-.05.18.12.33.07.52-.13-.23-.4-.34-.5-.6-.13-.35-.05-.72-.12-1.07-.01-.02-.01-.06-.01-.09-1.13-.24-.99.08-.92.25-.13-.13-.13-.13-.22-.17-.02.05-.04.12-.05.17-.07-.01-.15-.05-.21-.09.02-.01.05-.03.07-.04-.03-.07-.07-.15-.33-.15.04.06.12.12.19.17-.07.03-.07.03-.57-.18.02-.01.06-.03.08-.05-.01-.03-.02-.07-.04-.11-.77-.27-1.4-.35-1.9-.35-.18 0-.34.02-.48.03-.9.11-1.71.62-2.64.58h-.11c-1.16-.05-2.26.73-2.38.82-.01-.02-.01-.06-.03-.08zm9.03-.795h.046c.015 0 .028 0 .022-.012.012.008.03.022.038.03.237.172.237.19.236.195-.01.008-.04-.006-.128-.05-.108-.05-.172-.082-.198-.068-.057-.05-.108-.093-.072-.1.016-.003.04 0 .055.005zm-.268.124c0 .006-.012.014-.015.02.112.087.16.102.193.068.024-.015.034-.027.077-.015-.21-.1-.225-.11-.23-.126h.09c.023-.01.017-.02.01-.03l.032.02c.14.15.19.26.1.26-.08 0-.21-.07-.21-.07s-.17-.12-.14-.15c.02-.01.08.02.08.05zm55.813 49.31l-.015-.152c-.67-5.8-3.005-10.472-5.133-14.398.027.02 3.49 3.45 4.875 12.402-.092-.655-.19-1.335-.27-1.9-1.317-6.285-1.34-6.403-2.497-9.773-.645-1.647-1.47-3.854-2.192-5.466l-.077-.17c-.5-1.062-1.22-2.444-1.755-3.485-1.45-2.452-2.25-3.794-2.92-4.83.01.005.01.013.01.02-.75-.947-1.37-1.99-2.15-2.915l-2.81-3.002c-.52-.572-.72-.904-.72-.904.02 0 .03-.01.04-.02.26.2.79.65 1.63 1.58-2.43-2.88-2.95-3.41-5.33-5.64-3.43-2.94-6.13-5.27-11.26-8.22-2.71-1.54-5.59-2.8-8.6-3.77v.01c.08.17.18.39.25.56.2.03.2.03 3.62 2.32-.31-.1-.74-.18-1.06-.19 1.29.82 4.08 2.52 4.1 2.54-.14.06-.34.13-.5.18.31.2.78.37 1.14.44-.54.11-.54.11-2.79-.86.25-.08.57-.25.7-.47-.51-.43-.51-.43-5.79-1.1-.09.3-.08.76.06 1.04l-.27.47c.22.29.57.62.85.84-.02.18-.04.41-.06.58.91.3.91.3 3.08 3.4-.68 2.39 2.76 4.57 4.02 4.61.05-.32.05-.76 0-1.08.12-.01.12-.01 2.82 1.3.11.36.27.83.4 1.18-.07-.04-.07-.04-1.9-1.68-.42 1.74 1.73 2.11 1.88 3.55-.21.24-.49.59-.67.85.4.9.86 1.92.07 4.25-.16-.03-.37-.08-.52-.11-.02.32-.13.74-.29 1.02-.33.04-.73.19-1.01.36 1.26 1.69 4.43 1.56 4.35 4.51-1.47.66-3.27.25-4.57 1.45 1.57 1.83 1.39 4.54 3.17 6.27 3.4-.5.69 4.82 1.24 7.19-.65.69-.92.98-1.47 2.7-.79 2.5-1.73 4.95-2.47 7.47-.93 3.1 1.55 6.1.27 9.21l4.18 7.62c1.85.68 3.21 2.13 4.91 3.05 1.29-1.47 8.39-4.97 9.1-5.07.56.79.65 1.09.8 2.15 1.43-.76 1.43-.76 2.17-.75.08.25.25.58.25.85 0 0 9.46-9.51 9.5-13.69-.07-1.87-.14-4.38-.31-6.24zm-16.066-31.48c.23.306.29.448.29.635.49.21.54.23.93.63-.14-.41-.49-1.48.58-.94.26.12 1.53.98 1.93 1.63.9 1.46.17 1.4-.07 1.34-.2-.04-.41-.16-.53-.22-.19.17-.15.5-.08 1.09.06.59.04.76-.06.94-.07.08-.16.11-.25.11-1.07 0-3.36-5.23-3.38-5.29.35.24.63.44.62.06zm3.48 7.473c-.03-.04-.07-.078-.11-.125.01.01.02.015.11.125zm-13.71-10.98c-.03.644-.18.84-1.02.288-.17.223-.01.557-.27.757-.31-.534-.49-1.148-.93-1.618.3.053.41.37.67.5.08-.082.02-.197.06-.284.08-.01.1-.01.26.11-.07-.335-.4-.49-.55-.765.03-.016.06-.03.09-.044.21-.13.27-.27.26-.59-.66-.45-1.18-1.05-1.78-1.56.04-1.09-.69-1.46-1.31-1.58-.71-.13-.82-.15-1.75-1.11-.49-.5-.55-1.25-1.04-1.75-.37-.38-1.06-.42-1.2-1.06-.14-.56.95.01.96.03.01.01.99 1.42.97 1.49-.03.02-.08.03-.11.03 2.58 1.84 2.58 1.84 2.72 1.97-.05.1-.15.09-.23.14-.04.26.8.41 1.07.19.44-.34.09-1.43.83-1.34.05.1.14.22.16.32.05.19.05.27-.19.71-.23.39-.06.71.02.88.26.5.64.71.71.54.05-.12-.09-.24.01-.36.02-.03.08-.04.27.03.31.24.63.49.94.75.01.03.03.08.03.12-.01.02-.03.04-.04.05-.32-.04-.55-.38-.91-.25-.03.01-.06.08-.04.11.06.13.2.28.29.39.45.54 1.1.85 1.52 1.42.25.34.24.78.41 1.14-.87-.47-.92-.17-.94.4zm19.05 17.59c-.11.275-.05.596.06 1.023-.7.157-1.44.068-2.14.266-.85-1.28-1.14.288-1.15.307-.04.255-.04.255.74 1.98-.48.454-1.47.968-2.68-.694-.25-.02-.49.05-.73.11-.28.07-.56.15-.86.09-.5-.1-.62-.25-1-.71-.17.07-.12.3-.28.38-.33-.51-.1-1.13-.33-1.65.13.08.13.08.26.54.05-.15.09-.29-.11-.57-.24-.31-.62-.46-.85-.76-.25-.33-.03-.71-.14-1.04-.86-.16-.86-.16-.94-.24-.54.68-.73.91-1.92 1.47-2.6 1.22-2.81 1.56-3.52 3.21-.32-.04-.61.08-.9.21-.3.13-.6.26-.94.2-.46-.08-.67-.44-.94-.9.26-.22.63-.49.9-.69 1.95-1.38 1.63-2.39 1.06-3.46-.49-.93-.33-1.26.6-3.15-.22-.42-.57-.75-.78-1.17.51-.41 1.22-.44 1.67-.94.35-.41.31-.65.25-1.25.18-.12.36-.07.55-.03.12.03.23.07.36.05 1.04 1.12 1.35 1.46 2.83 1.93 1.07.34 1.66.53 2.68 1.74 0 0 .25.49-.01.91-.25.38-.74.4-1.03.72.44.65 1.23.58 1.83.9.04-.52-.39-.85-.53-1.31.36-.46-.16-.99.12-1.46h.01c-.27-.53-1.26-.69-.98-1.47.21 0 .28 0 .83.37-.47-.89-1.56-1.01-2.17-1.73-.06.09-.09.13-.16.18-.07.01-.13.01-.18.01-1.06 0-1.38-1.37-2.41-1.42-.61-.82-.75-1.03-.65-1.44.27.13.46.4.79.44.04-.05.07-.13.09-.19.19.15.42.37.61.51.94.68 2.17.69 3.11 1.38.83.6 1.09 1.7 1.93 2.3.35.25.39.27.93.58.14.62.68.98.98 1.5.01-.06.05-.14.08-.19l.37.04.07-.1c-.16-.26-.41-.46-.56-.73.03.02.07.06.09.09.03-.01.07-.01.1-.01-.06-.33-.15-.39-.3-.51.01-.03.03-.06.04-.09.47-.11.25-.4.23-.41-.55-.69-1.39-1.05-1.95-1.73.01-.04.02-.07.03-.1.06-.01.12 0 .18 0 .08.01.17.01.25-.01-.01-.32-.32-.43-.46-.67.04 0 .07.01.11.01.27-.01.19-.39.46-.4.17-.01.25.15.35.36 0 .01.68 1.19.73 1.22.02-.02.06-.06.08-.09-.03-.13-.06-.21-.13-.32.1.13.27.36.53.74-.07-.01-.15-.01-.22-.01-.03.15-.04.22.23.43.06-.01.14-.05.19-.08.442.14.93 1.24.932 1.24-.025-.27.23-.23.49-.19.16.022.31.05.42.01.03-.17.04-.24-.16-.72.6.31.6.31.71-1.36l.4.69c1.655 2.95 2.083 4.18 2.423 5.16-.145.29-.55.27-.67.58zm-2.76-10.403l.01.027-.01-.01-.01-.01zm-2.6-3.57c.29.36.6.76.93 1.205l1.67 2.36c-.75-1.16-1.34-1.95-2.51-3.46-.04-.04-.06-.08-.1-.11zm-69.2 40.083c-.11 0-.22.004-.33.004-.18.01-.35.01-.53 0-.11 1.01 1.55.86 1.93.56.03-.02.06-.05.08-.08 0-.02.02-.03.02-.05-.33-.27-.53-.39-.92-.42H246zm35.04-48.947h-.05c-.48.046-.48.046-1.9.92-.36-.503-.5-.516-1.11-.562v.135c-.08.17-.28.244-.35.42-.04.09.01.23.04.324.12.013.24-.014.36-.05.12-.033.25-.065.38-.042.22.036.33.164.21.25-.08.05-.16.042-.24.036-.09-.01-.18-.01-.25.05-.07.06.01.19.05.27.62-.08.81-.09 1.16.3-.2.04-.27.05-.11.31 2.03.36 2.94-.26 3.69-1.3-.11-.14-.16-.31-.25-.45-.32-.5-1.42-.59-1.66-.59zm-41.2 48.733c.95.036 1.3.156 1.52.796.55-.88.68-.86 2.92-.47l.06-.83c-1.51-.88-2.51-1.47-3.66-1.59-.09-.01-.17-.02-.25-.02-.3 0-.52.04-.82.15.84.3.49.63.39.65-.02.01-.06.01-.09.01h-.05c-.01.17-.03.34.02.4.15.17.39.18.56.3-.32.21-.54.14-1.01-.08-.33-.15-.59-.26-.95-.22.06.69.39.82 1.31.87zm-4.19-10.07c-.03.085-.08.203-.11.287-1.23 3.92 2.2 4.83 2.35 4.87.17-.2.22-.252.1-.447-.24-.383-.17-.743.16-.73.64.02.64.02.66-.008.01-.01.03-.03.04-.048.09-.152-.24-.588-.24-.588-.11-.08-.3-.07-.6-.03-.15-.54-.37-1.03-.54-1.54.4.04.51.21.58.3.11-.62.07-.69-.4-1.31-.26.57-.48.67-.68.29-.09.67-.09.67.41 2.14-.17.24-.33.31-.69.3.08-.55.08-.78-.04-1.53-.13-.78-.08-1.02.27-1.53-.49.01-.86-.33-1.3-.45zm-3.42 2.68c-1.05 0-1.43.392-1.86 1.244.42-.016.71.163 1.13.464.74.52 1.18.68 1.95-.02 1.1.91 1.65 1.66 2.35 3.15.39-.09.67-.08 1.45.04h.02c.61.11 1.14.19 1.57.12.05-.01.12-.03.17-.04-.62-1.42-2.58-1.7-2.9-3.38-2.79-1.4-2.79-1.4-3.76-1.55h-.14zm66.22-31c-.19-.182-.19-.182-.79-1.065-.4-.586-.44-.647-1.03-.453-.71-.66-.71-.66-2.63-1.708-.64-.342-.91-.544-.91-.544-.06-.07-.06-.197-.09-.29-.12-.47-.2-.61-.46-.975-.35.014-.67.346-1.05.117-.02-.627-.02-.756-.54-1.238.01.037.04.095.06.134.04.21.03.29-.23.54-.35.32-.39.51.03 1.09-.2-.1-.36-.12-.46-.06-.04.15.11.28.15.32.04.04.14.03.18.06.36.27.54.79 1.07.85-.3.11-.35.19-.11.56.14-.02.2-.16.31-.22.07.07.07.07.15.28.19.02.1-.25.18-.36.4.15.38.63.68.86l.61-.16c.32.35.74.6 1.02.99-.27.08-.53.14-.81.21.25.43.76.6 1.01 1.02-.37.22-.42.26-.45.48.07.08.18.18.3.2.09.02.18-.01.27-.03.09-.02.17-.04.26-.03.27.48 0 1 .07 1.49 1-.76 2.42-.86 3.16-2.03zm-33.31 61.617c-.75-2.02-2.98-3.115-3.4-5.34-4.24-2.61-4.24-2.61-5.79-2.052-1.98-1.425-3.32-3.482-5.1-5.096l.35-.617c-.17-.085-.39-.195-.57-.274-.06.21-.14.49-.21.7-.63-.78-1.74-.81-2.42-1.5-.07.39-.35.88-.63 1.16-1.93-.7-1.93-.7-3.44-.74-.21-1.08-1.29-1.47-1.82-2.3-.11.39-.34.88-.59 1.19-.15-.39-.3-.95-.37-1.37-.05.01-4.25.58-4.51 2.73-.36.21-.77.56-1.04.87-3.37-1.23-3.37-1.23-3.83-1.07-2.17-1.16-2.64-4.58-.93-6.92.02-.2.03-.41.05-.62-.56-.68-.56-.68-4.79-2.17 1.1-1.85 1.44-4.03 2.48-5.91-.99-.54-3.34-1.48-3.8 1.54-.4.14-.4.14-2.51.52-3.13-3.51-.37-12.96 3.6-12.32.96.15 1.87.79 2.53 1.25.97-.52 1.93-.34 2.89-.14.6.12 1.21.24 1.81.18l.45 5.48c-.32.23-.75.57-1.06.82 3.26.77 2.73-3.27 2.55-4.6-.22-1.61-.22-1.61 3.22-5.16l.69.12.11-.12c-.17-.07-.32-.14-.47-.22-.14-.07-.01-.27.12-.21.16.08.33.16.51.23 3.78-4.49 3.8-4.53 4.88-6.52.37-.01.87-.02 1.24-.04.1-.15.22-.35.31-.5.35-.01.83.06 1.16.17.17-.1.4-.23.56-.33l-.42-.47c.47-1.01 1.01-2.16 4.75-2.54l-.2.09c-.26.32-.5.84-.58 1.25.44 0 1.04-.15 1.43-.35 5.16 2.86 4.95-1.78 4.76-3.27 1.55.13 1.55.13 2.15.25l.15.57-.03.21c.39-.12.87-.37 1.18-.62.06.2.12.47.16.68.18.06.42.15.6.21.3-.3.6-.82.73-1.22-.16-.09-.38-.2-.53-.29.33-.93.33-.93-2.02-2.01.14-.36.41-.8.64-1.09-.27 0-.63.01-.9.01-.89.99-1.44 2.25-2.5 3.09-1.07-2.14-3.05-.65-4.11 1.09.04-.42.19-1 .36-1.39-.18-.02-.42-.04-.6-.04.39-.17.86-.5 1.17-.78l-.37-.53c-1.05-.18-1.4-.24-3.06.49.24-.33.73-.66 1.13-.74l.25.01c.14-.16.32-.39.45-.56 6.93-.67 6.93-.67 8.28-1.5.08-.45.14-.89.21-1.33-2.44-1.54-2.44-1.54-3.68-6.78-1.42 1.46-1.73 1.5-2.56 1.6-.48-.53-.66-.73-.11-1.82-1.14-1.76-1.14-1.76-3.31-2.1-1.75 2.56-1.75 2.56-2.22 2.9.98 2.8-2.52 3.43-2.55 3.43-.56 1.91-.56 1.91-1.71 2.85-.11-.18-.28-.42-.39-.6.29-.24.55-.71.62-1.08-.14-.15-.32-.36-.46-.52.21-.36.5-.82.74-1.15-1.31-.79-1.83-2.36-3.14-3.15-.12-.72.127-1.42.12-2.14.43-.43.43-.43 7.8-3.83l-.28.24c-.97.82-.97.82-1.65 1.28.09.17.2.4.28.57.36-.03.82-.17 1.15-.32.33.19.83.38 1.22.44.07-.8-.29-1.58-.1-2.38v.6c.62-.64 1.65-.66 2.17-1.44.17.07.386.17.55.23 0 .02-.39 1.64-1.12 2.35 2.22 1.18 2.22 1.18 2.41 2.1.65.16 1.225.53 1.85.78.053-.19.13-.44.175-.62-.08-.16-.21-.37-.3-.54.35.15.78.44 1.06.7.28-.24.66-.55.94-.78-.71-1.93-.71-1.93-.703-2.2.34.23.73.65.91 1.02.66-.01.66-.01 1.79-.9-.414-.8-1.23-1.27-1.68-2.04l.39-.46c-.1-.44-.1-.44-1.63-2.41.05-.2.134-.46.19-.66-.04-.02-4.485-1.9-5.334 1.31.14.13.33.29.455.42-.28.35-.71.77-1.08 1.04-.17-.05-.4-.11-.57-.16.1-.16.22-.37.32-.53-.57-1.46-.38-1.54 2.904-2.94-.71-.603-.71-.603-3.66-.133-.1.16-.22.38-.32.54.14.115.34.26.48.37-.77.75-.77.75-2.23 1.02.83-2.11.83-2.11 2.4-2.64l-.5-.39c-.42.2-.98.51-1.39.75.207-.13.47-.32.677-.46-.096-.16-.227-.37-.32-.53.194-.37.48-.85.734-1.19-.03-.055-.07-.13-.094-.19-.454-.15-1.02-.33-3.303.79.17.13.41.3.58.43.27-.06.63-.15.89-.18-1.06.34-1.06.34-1.72.76.02.18.05.42.06.6-1.24-.096-1.34.14-1.71 1.02-.065-.35-.06-.85.04-1.2-.14-.11-.33-.25-.48-.36.17-.07.39-.164.545-.24l.377-.18-.61.143c.14-.14.32-.32.45-.46-.3-.3-.8-.61-1.2-.77 1.16-.987 2.5-1.736 3.688-2.67-.19-.04-.33-.067-.48-.067-.46 0-1.05.24-3.36 1.14.15-.07.29-.15.45-.22l.55-.21c-2.46.79-6.68 3.103-8.27 3.98h-.013c-.63.37-1.45.88-2.067 1.26l.14-.08.67-.33.34-.21.592-.31c-.26.19-.58.37-.895.55.19-.04.44-.07.63-.1-1.67 1.53-3.25 3.16-4.98 4.64.38-.27.88-.62 1.25-.9-2.59 2.53-2.59 2.53-2.63 2.694-.36.28-.73.57-1.09.87-12.02 17.22-12.02 17.22-12.55 18.53-1.03 2.53-.2 5.31-1.1 7.85-1.4 3.94-.09 7.23-.07 7.25.82-9.35.82-9.35 1.07-10.06l.47.477c-3.24 15.19 2.554 19.85 4.46 21.39.19-.08.44-.18.63-.24 2.06 1.52 6.74 7.76 6.78 7.813-.022.48-.05.97-.06 1.45 1.41.7 2 2.366 3.5 2.96-.02.183-.05.416-.06.59.35.13.8.355 1.11.56.1-.15.26-.345.38-.49-.1-.165-.22-.39-.31-.55.26-.26.69-.53 1.05-.64.17.32.44.73.67 1.01 1.1 4.79 1.1 4.79-.7 7.81-.18.03-.42.08-.6.11-.1 1.17-.47 2.296-.42 3.476.35.23.76.61 1.01.92-.2.11-.46.24-.66.344-.48 1.55.05 2.54.06 2.55 1.65 2.8 4.66 4.63 5.7 7.88.02.07.02.07 5.57 4.55 4.98 4.01-.7 12.52 6.56 15.58l-.39-.48c.33.19.72.53.94.85l-.67-.14c1.03.997 1.03.997 1.44 1.13.12.19-.02.17-.15.148 2.128 1.29 4.49 2.02 7.03 2.19-2.32-.74-2.32-.74-2.94-1.9l-.58-.13c.17-.344.27-.86.26-1.234l.6.13c-.3-.21-.76-.39-1.11-.43.39-.18.96-.29 1.39-.3l.08-.65c1.94-.16 1.96-.18 2.77-.79-.08-.24-.17-.56-.23-.79 3.44-1.51 3.44-1.51 5.85-4.43-.24-1.963-.24-1.963 6.43-3.75.57-.98 1.35-1.82 1.9-2.82.21-.55.37-.55.54-.552.14-3.596 3.045-5.76 4.48-8.69.723-1.48.4-2.446-.057-3.786-4.89-.01-8.5-3.77-13.14-4.53zm-8.63-74.53c.02 0 .06-.003.12.017.08.027.15.072.23.097-.01.015-.02.02-.03.03-.17.147-.3.17-.4.17.08-.093.22-.252.11-.238-.05.006-.16.066-.21.095.03-.06.08-.16.17-.17zm-15.66 23.235c-.76.584-1.59.647-2.74.733.13-.193.39-.604.94-.764.22-.056.4-.074.62-.08.21-.002.43.01.64.027.2.01.4.03.6.03-.02.02-.06.04-.08.06zm-2.11-3.75c.73-.552 1.51-.32 1.83.013-.12.2-.29.14-.46.08-.11-.026-.2-.063-.29-.045-.07.194-.02.25.28.254.31.002.43.028.35.25.11-.026.11-.026.35-.49.45 0 .5.274.53.656.03.374.05.46.17.61l-.07.107c-.32.442-.73.345-.76-.052-.01-.066 0-.148.01-.216-.55.296-.92.976-1.22 1.658-.1-.025-.18.01-.26.046-.09.037-.18.073-.28.04.14-.465.14-.465.16-.883.01-.397.08-.604.26-.945-.41.152-.28.58-.44.86l-.09.018c-.03-.01-.05-.017-.1-.06.68-1.125.49-1.35.02-1.9zm4.89 2.824l-.06.11c-.46.76-1.47.47-2.14.28-.33-.1-.52-.15-.67-.14.69-.59 1.52-.67 2.86-.26zm-2.86-24.28c.46-.32.27-.35.12-.39-.15-.03-.22-.04-.23-.11.45-.05.72.01 1.36.14-.21.09-.44.04-.64.17-.07.04-.25.19-.03.28.27.1.3.11.05.22-.36.15-.41.07-.44.01-.08-.13-.18-.11-.75.25-.02-.06-.06-.07-.24.02.03-.06.15-.1.15-.1.07-.02.44-.27.43-.32-.03-.02-.08-.02-.34.05-.29.09-.54.15-.5.04.35-.17.96-.43 1.05-.29zm-2.3 3.49c.07.01.14.01.21.01.34 0 .62-.13 1.04-.41-.07.19.01.23.33.41l-.15.05c-.35.11-.6.12-.89.14-.47.03-.66.06-1.05.22.43-.3.26-.37.17-.39-.14-.03-.27.03-.31.05.24-.14.31-.16.64-.11zm-.88.01c-.03.09-.09.12-.11.13-.23.13-.39.18-.51.18-.11 0-.16-.05-.23-.09-.01 0-.01-.02-.01-.02.57-.24.91-.38.85-.21zm1.58 14.84c-.17.33-.47.96.37 1.02-.16.29-.19.35-.22.75-.02.21-.07.32-.19.46-.05.05-.12.12-.18.16.02-.63-.45-.54-1.5-.36 0-.23-.19-.41-.16-.66.02-.2.04-.21.29-.45-.54.05-1.05.32-1.6.32-.08 0-.16-.01-.23-.02-.2-.07-.3-.15-.46-.35 1.73-.9 2.42-1.17 3.86-.9zm-2.32 3.43c-.04-.08-.04-.08-.1-.13 0-.02 0-.02.34-.59.07.04.11.06.19.08.19.03.31.02.63-.04s.48-.08.55.09l-.1.07c-1.31 1.06-1.98 1.59-2.44 3.39-.21-.09-.33.04-.45.19-.1.11-.2.22-.33.22-.05 0-.09-.01-.13-.03-.05-.98 1.02-2.72 1.8-3.27zm4.15 41.95l-.02.28c-.58 0-.94-.78-.66-1.14.33.11.08.6.44.69h.05c.06-.29-.01-.39-.16-.54-.15-.15-.22-.26-.16-.54.24.12.54.39.5 1.24z" fill="#D1D3D4"/>
  <path d="M18.976 105.487H39.77v8.24H28.356v5.706h11.068v8.24h-11.07v6.303H39.77v8.24H18.977v-36.73zm36.277 17.173l-11.366-17.173h10.62l6.305 10.472 6.104-10.48h10.57l-11.214 17.37 12.706 19.36H68.354l-7.94-13.01-7.544 13H42.398l12.855-19.56zm39.6-17.173c6.8 0 9.33 1.042 11.316 2.68 2.87 2.382 4.31 6.004 4.31 9.727 0 3.722-1.54 7.644-3.87 9.63-2.53 2.135-5.01 3.176-10.72 3.176h-3.67v11.516h-9.38v-36.728h12.01zm-2.63 16.974h3.424c.893 0 2.382 0 3.624-.54 1.24-.54 2.24-1.69 2.24-3.87s-1.04-3.22-2.33-3.77c-1.29-.54-2.83-.54-3.87-.54h-3.08v8.74zm20.592 1.79c0-12.01 9.232-19.45 19.355-19.45 11.316 0 19.407 8.84 19.407 19.06 0 10.23-8.04 19.06-19.456 19.06-11.56 0-19.3-9.18-19.3-18.61v-.05zm9.38-.45c0 5.61 3.82 10.87 10.126 10.87 6.66 0 9.88-6.05 9.88-10.77 0-4.76-3.22-10.87-9.97-10.87-6.5 0-10.02 5.56-10.02 10.72v.05zm34.44-18.31h12.01c5.757 0 9.332 1.04 11.365 2.63 3.078 2.38 4.466 6.01 4.466 10.03 0 2.83-.793 5.01-1.835 6.65-1.24 1.94-3.02 3.18-4.76 3.92l7.6 13.5h-9.68l-9.58-17.72h1.54c2.39 0 4.42-.2 5.66-.99 1.14-.74 2.09-2.48 2.09-4.52 0-1.93-.94-3.47-2.18-4.27-1.04-.64-2.53-.99-3.82-.99h-3.47v28.49h-9.38v-36.73zm36.82 8.24h-7.245v-8.24h23.82v8.24h-7.194v28.49h-9.38v-28.49z" fill="#4495D1"/>
  <path d="M334.668 158.04h7.03v1.364H336.2v4.86h5.46v1.385h-5.46v6.22h-1.532v-13.83zm25.28 6.956c0-4.264 3.31-7.2 7.217-7.2 4.056 0 7.217 3.105 7.217 7.162 0 4.056-3.142 7.158-7.217 7.158-4.094 0-7.217-3.157-7.217-7.1v-.02zm1.554-.038c0 3.252 2.446 5.794 5.682 5.794 3.273 0 5.664-2.634 5.664-5.794 0-3.16-2.39-5.797-5.683-5.797-3.253 0-5.663 2.58-5.663 5.78v.02zm31.715-6.918h3.605c2.17 0 3.18.26 3.89.71 1.12.672 1.89 2.15 1.89 3.72.017.936-.244 1.924-.823 2.71-.83 1.124-1.82 1.386-3.09 1.517l3.44 5.18h-1.68l-3.91-6.038h.45c.97 0 2.31-.03 3.06-.72.73-.71 1.04-1.55 1.04-2.55 0-1.03-.51-2.11-1.37-2.67-.69-.45-1.56-.51-2.81-.51h-2.17v12.47h-1.55v-13.83zm29.583 0v8.77c0 1.047 0 1.85.652 2.786.484.688 1.4 1.156 2.41 1.156.99 0 1.907-.45 2.374-1.14.656-.915.656-1.72.656-2.804v-8.77h1.532v8.77c.02 1.607-.188 3.197-1.57 4.263-.767.66-1.793 1.05-2.99 1.05-.974 0-2.19-.27-3.048-1.04-1.458-1.17-1.573-2.75-1.573-4.26v-8.77h1.556zm27.205 13.835V158.04h2.168l5.126 11.61 5.1-11.61h2.17v13.835h-1.46l.03-12.304-5.37 12.31h-.99l-5.39-12.3.03 12.31H450z" fill="#4C4C4D"/>
  <path d="M333.668 157.04h7.03v1.364H335.2v4.86h5.46v1.385h-5.46v6.22h-1.532v-13.83zm25.28 6.956c0-4.264 3.31-7.2 7.217-7.2 4.056 0 7.217 3.105 7.217 7.162 0 4.056-3.142 7.158-7.217 7.158-4.094 0-7.217-3.157-7.217-7.1v-.02zm1.554-.038c0 3.252 2.446 5.794 5.682 5.794 3.273 0 5.664-2.634 5.664-5.794 0-3.16-2.39-5.797-5.683-5.797-3.253 0-5.663 2.58-5.663 5.78v.02zm31.715-6.918h3.605c2.17 0 3.18.26 3.89.71 1.12.672 1.89 2.15 1.89 3.72.017.936-.244 1.924-.823 2.71-.83 1.124-1.82 1.386-3.09 1.517l3.44 5.18h-1.68l-3.91-6.038h.45c.97 0 2.31-.03 3.06-.72.73-.71 1.04-1.55 1.04-2.55 0-1.03-.51-2.11-1.37-2.67-.69-.45-1.56-.51-2.81-.51h-2.17v12.47h-1.55v-13.83zm29.583 0v8.77c0 1.047 0 1.85.652 2.786.484.688 1.4 1.156 2.41 1.156.99 0 1.907-.45 2.374-1.14.656-.915.656-1.72.656-2.804v-8.77h1.532v8.77c.02 1.607-.188 3.197-1.57 4.263-.767.66-1.793 1.05-2.99 1.05-.974 0-2.19-.27-3.048-1.04-1.458-1.17-1.573-2.75-1.573-4.26v-8.77h1.556zm27.205 13.835V157.04h2.168l5.126 11.61 5.1-11.61h2.17v13.835h-1.46l.03-12.304-5.37 12.31h-.99l-5.39-12.3.03 12.31H449z" fill="#A7A9AC"/>
  <path d="M214.2 105.487h4.118v33.103h13.997v3.625H214.2v-36.728zm21.982 0h20.348v3.622h-16.28v12.75h16.182v3.62h-16.18v13.1h16.278v3.62h-20.348v-36.73zm27.988 36.728h-4.416l15.335-36.728h3.96l15.19 36.728h-4.47l-4.27-10.325h-17.12l-4.22 10.325zm12.754-32.113l-7.296 18.415h14.643l-7.34-18.415zm21.386-4.615h10.97c5.21 0 10.77 1.142 14.443 5.51 2.977 3.273 4.417 7.593 4.417 12.803 0 11.068-6.305 18.415-18.662 18.415H298.31v-36.728zm4.07 33.103h7.296c9.43 0 14.345-5.805 14.345-14.64 0-4.27-1.14-8.04-3.57-10.72-2.33-2.483-5.76-4.122-10.77-4.122h-7.29v29.482zm57.912-33.103h9.578c5.757 0 8.438.694 10.323 1.886 2.98 1.786 5.014 5.708 5.014 9.876.05 2.48-.647 5.11-2.185 7.19-2.184 2.98-4.813 3.67-8.188 4.02l9.132 13.75h-4.468l-10.373-16.03h1.193c2.578 0 6.152-.05 8.137-1.89 1.937-1.89 2.78-4.12 2.78-6.75 0-2.73-1.34-5.61-3.622-7.1-1.837-1.19-4.12-1.34-7.445-1.34h-5.757v33.1h-4.11v-36.72zM392.1 131.99c.596 6.104 5.062 7.393 7.347 7.393 3.82 0 7.345-2.927 7.345-6.998 0-5.16-4.418-6.302-8.685-7.69-2.978-.895-9.38-2.78-9.38-9.728-.1-6.502 5.31-10.126 10.918-10.126 4.565 0 9.827 2.54 10.422 9.49H406c-.447-2.38-1.64-6-6.503-6-3.674 0-6.7 2.49-6.7 6.3-.052 4.47 3.573 5.56 9.132 7.45 3.47 1.34 8.93 3.28 8.93 10.03 0 6.01-4.52 10.77-11.37 10.77-6.16 0-11.27-3.87-11.52-10.87h4.11zm24.268 10.225v-36.728h4.067v16.33h17.72v-16.33h4.118v36.728h-4.117v-16.777h-17.72v16.777h-4.068zm33.247-36.728h4.07v36.728h-4.07v-36.728zm20.795 0c5.16 0 7.595.596 9.877 2.332 2.432 1.88 3.92 5.31 3.92 8.73 0 3.47-1.538 7-3.772 8.73-2.43 1.88-4.915 2.48-9.678 2.48h-5.906v14.44h-4.11v-36.72h9.68zm-5.558 18.66h5.855c3.078 0 4.962-.348 6.8-1.538 1.59-1.05 2.73-3.38 2.73-5.96 0-2.63-1.14-4.96-2.78-6.01-1.84-1.19-3.72-1.54-6.85-1.54h-5.756v15.04zm-110.81 1.34v-3.622h-10.43c-.562 1.205-1.143 2.413-1.75 3.622h12.18zm-20.252 16.728h20.35v-3.625h-16.277v-5.586c-1.285 2.27-2.648 4.534-4.07 6.796v2.415zm15.083-33.107h5.268v-3.622h-4.04c-.38 1.202-.79 2.41-1.22 3.622z" fill="#0F395D"/>
  <path fill="#ED174C" d="M282.747 53.337c16.778-8.215 32.395-9.392 42.79-1.553 20.517 15.48 12.875 60.207-17.072 99.9-29.002 38.446-68.296 58.07-89.38 45.2.6.557 1.223 1.07 1.874 1.564 21.48 16.214 64.31-4.34 95.66-45.897 31.35-41.56 39.36-88.39 17.87-104.6-12.3-9.28-31.62-6.48-51.76 5.39z"/>
  <path fill="#D1D3D4" d="M291.808 85.356c1.63 1.482 2.964 2.247.164 3.868.454-.263-.586-.52-.78-.91-.565-.293.56-.718.42-.882-.882-.1-1.198.65-1.928-.535.208.338.213-.21.73-.522-.622-.583-.236-1.152.02-1.388.166-.125.294-.195.548-.292.266.196.52.382.826.66"/>
</svg>
