<?xml version="1.0" encoding="utf-8"?>
<!-- Generator: Adobe Illustrator 16.0.0, SVG Export Plug-In . SVG Version: 6.00 Build 0)  -->
<!DOCTYPE svg PUBLIC "-//W3C//DTD SVG 1.1//EN" "http://www.w3.org/Graphics/SVG/1.1/DTD/svg11.dtd">
<svg version="1.1" xmlns="http://www.w3.org/2000/svg" xmlns:xlink="http://www.w3.org/1999/xlink" x="0px" y="0px"
	 width="666.667px" height="333.333px" viewBox="0 0 666.667 333.333" enable-background="new 0 0 666.667 333.333"
	 xml:space="preserve">
<g id="Layer_2" display="none">
	<rect x="0" y="0.083" display="inline" fill="#1B2933" width="666.499" height="333.25"/>
</g>
<g id="Layer_1">
	<g>
		<defs>
			<rect id="SVGID_1_" x="0" y="0.083" width="666.499" height="333.25"/>
		</defs>
		<clipPath id="SVGID_2_">
			<use xlink:href="#SVGID_1_"  overflow="visible"/>
		</clipPath>
		<g transform="matrix(1.333 0 0 -1.333 0 333.333)" clip-path="url(#SVGID_2_)">
			<g>
				<path fill="#999999" stroke="#333333" stroke-miterlimit="10" d="M259.406,181.46c0.1,0.042,0.105,0.008,0.117-0.006
					c-0.01-0.006-0.016-0.014-0.022-0.016c-0.16-0.114-0.24-0.153-0.23-0.114c0,0.017,0.021,0.046,0.05,0.058
					c-0.17-0.117-0.36-0.26-0.29-0.276h0.01c-0.07-0.04-0.1-0.056-0.13-0.056c-0.05,0.032,0.321,0.332,0.52,0.41 M253.091,180.69
					c0.12-0.048,0.319-0.128,0.85,0.14c-0.019-0.02-0.06-0.062-0.07-0.093c0.081-0.043,0.081-0.043,0.23,0.008
					c-0.04-0.025-0.1-0.05-0.139-0.076c-0.24-0.15-0.24-0.15-0.51-0.53c0.11,0.07,0.23,0.03,0.34,0.01c0.1-0.03,0.199-0.05,0.3-0.02
					c0.5,0.17,0.759,0.64,1.159,0.94c0.041-0.07,0.041-0.07,0.211-0.17c-0.201-0.5-0.97-0.35-1.051-0.96
					c0.029-0.02,0.05-0.04,0.07-0.05c0.129-0.04,0.259-0.03,0.379-0.01c0.13,0.01,0.251,0.02,0.371-0.01
					c0.46-0.11,0.84-0.41,1.3-0.53c0.079-0.02,0.28-0.05,0.46-0.05c0.989,0.02,0.96,0.68,0.949,0.69c-0.06,0.27-0.7,0.25-1.08,0.24
					c-0.769-0.02-1.07,0.04-0.769,0.44c0.73-0.01,1.42-0.29,2.16-0.26c-0.091-0.08-0.091-0.08-0.141-0.17
					c0.01-0.02,0.021-0.04,0.041-0.06c0.27,0,0.919,0.03,1.19,0.41c-0.041,0.03-0.041,0.03-0.17,0.01c0,0.02-0.01,0.05-0.01,0.07
					c0.34,0.15,0.39,0.17,0.96,0.32c0.141,0.04,0.481,0.12,0.659,0.19c0.07,0.03,0.161,0.06,0.23,0.09
					c0.211,0.09,0.24,0.37,0.451,0.45c1.01,0.42,2.119,0.52,3.099,1.01l0.381,0.2c-0.57,0.31-0.961,0.45-1.55,0.53
					c-0.24,0.02-0.4,0.04-0.541,0.04c-0.259,0-0.46-0.05-1.02-0.23c-0.19,0.13-0.53,0.22-1.79-0.09c0.01-0.02,0.021-0.05,0.031-0.08
					c-0.1-0.13-0.261-0.24-0.319-0.41c-0.081,0.02-0.081,0.02-0.021,0.46c-0.21,0.24-1.61-0.22-1.94-0.71
					c0.01-0.02,0.01-0.05,0.019-0.07c0.051,0,0.111,0.01,0.141,0.02c-0.021-0.01-0.05-0.02-0.07-0.04
					c-0.96-0.43-0.369-0.72-0.369-0.72c0.27-0.08,0.719,0.07,0.91,0.13c-0.06-0.04-0.151-0.11-0.22-0.15l-0.081-0.1
					c0.04-0.05,0.11-0.09,0.17-0.11c-0.04-0.11-0.17-0.2-0.27-0.26c0.24,0.25-0.01,0.29-0.031,0.29c-0.17,0.01-0.409-0.11-0.5-0.15
					c0.021-0.02,0.031-0.02,0.05-0.03c-0.139-0.35-1.53-0.19-1.579-0.02c-0.021,0.09,0.12,0.4,0.28,0.33
					c0.251-0.1,0.251-0.1,0.68,0.12c-0.081,0.04-0.17,0.03-0.251,0.07c0.06,0.07,0.081,0.09,0.251,0.17
					c-0.01-0.02-0.01-0.05-0.021-0.06c0.101,0.03,0.101,0.03,0.271,0.12c-0.021,0.01-0.041,0.01-0.06,0.02
					c-0.031,0.13,0.079,0.23,0.07,0.36c-0.271,0.04-0.81-0.24-0.81-0.24c-0.23-0.16-0.28-0.46-0.46-0.65
					c-0.06,0.02-0.06,0.02-0.321,0.02c-0.019,0.01-0.019,0.04-0.029,0.05c-0.38-0.2-0.38-0.93-0.96-0.82
					c-0.021,0.04-0.041,0.09-0.041,0.13c-0.089,0.03-0.11,0.03-0.5-0.14c0.311,0.24,0.68,0.4,1.001,0.63
					c-0.18,0.27-0.36,0.41-1.241,0.05c0.211,0.16,0.23,0.18,0.271,0.27c-0.06,0.12-0.041,0.13,0.06,0.21
					c-0.3-0.1-0.57-0.26-0.851-0.39c0-0.03,0.01-0.06,0.021-0.09c-0.05-0.09-0.11-0.17-0.16-0.25c0-0.03,0.01-0.07,0.021-0.09
					c0.089-0.02,0.119-0.03,0.34,0.01c-0.46-0.28-0.431-0.36-0.381-0.47 M272.082,182.719c0-0.01-0.01-0.02-0.01-0.02
					c0.11-0.09,0.16-0.1,0.199-0.07c0.031,0.01,0.041,0.02,0.081,0.01c-0.21,0.1-0.22,0.11-0.23,0.12h0.06c0.01,0,0.021,0,0.04,0.01
					c0.021,0.01,0.021,0.02,0.01,0.03l0.031-0.02c0.149-0.15,0.189-0.26,0.1-0.26c-0.081,0-0.201,0.07-0.201,0.07
					s-0.16,0.13-0.139,0.15c0.019,0.02,0.079-0.01,0.079-0.05 M272.372,182.809h0.05c0.019,0,0.029,0,0.029,0.01
					c0.01,0,0.031-0.02,0.04-0.03c0.24-0.17,0.24-0.18,0.24-0.19c-0.01-0.01-0.04,0.01-0.129,0.05c-0.111,0.05-0.17,0.08-0.201,0.07
					c-0.05,0.05-0.1,0.1-0.07,0.1c0.021,0.01,0.041,0,0.06,0 M263.361,182.029c-0.06-0.01-0.16-0.02-0.35-0.2l0.041-0.08
					c0.12-0.01,0.239,0,0.35-0.04c0.009-0.02,0.009-0.05,0.009-0.08c-0.759-0.43-1.669-0.32-2.429-0.73
					c0.23-0.17,0.251-0.2,0.319-0.37c-0.019,0-0.019,0-0.46-0.26c0.36-1.6,3.221-0.44,2.98-2.15c-0.05-0.38,0.01-0.74,0-1.12
					c0-0.34-0.01-0.41-0.07-0.67c0.831,0.06,0.98-0.05,1.231-0.54c-0.74,0.17-0.74,0.17-0.92,0.16c-0.029-0.12-0.029-0.12,0.06-0.38
					c-0.07-0.02-0.07-0.02-0.3,0.11c-0.309-0.66,0.17-1.03,0.75-0.83c0.23,0.07,0.33,0.22,0.39,0.32c-0.21-0.02-0.28,0-0.309,0.18
					l0.07,0.04c0.28-0.08,0.28-0.08,0.409-0.18c0-0.01-0.009-0.75-0.06-0.83c-1.09,0.38-1.509-1.5-1.269-2.29
					c0.069-0.24,0.33-0.5,0.529-0.64c0.251-2.06,1.061-3.41,4.501-4.26c0.06,0.18,0.11,0.41,0.17,0.59
					c0.29,0.9,0.749,1.74,1.039,2.64c0.091,0.29,0.01,0.74,0.151,1.01c0.22,0.41,0.85,0.49,1.15,0.53
					c0.299,0.04,0.51,0.07,0.719,0.22c0.089,0.06,0.19,0.17,0.261,0.23c0.469,0.42,0.639,1.053,1.119,1.474
					c0.199,0.19,0.59,0.23,0.85,0.31c1.78,0.53,2.141,0.836,2.53,1.716c-0.611-0.01-0.611-0.01-0.76,0.17
					c0.18-0.05,0.36-0.04,0.541-0.02c0.11,0,0.239,0.01,0.349,0c-0.309,0.66-0.989,1.05-1.119,1.12c0.149,0.34-0.17,0.59-0.18,0.9
					c0.041,0.02,0.12,0.02,0.18,0c-0.149,0.62-0.149,0.62,0.19,1.07c-0.421,0.37-0.441,0.35-0.661,0.266
					c0.01-0.13,0.01-0.13,0.41-0.42c-0.38,0-0.38,0-0.45,0.06c0,0.08,0,0.08-0.9,1.01l0.06,0.07c0.23-0.13,0.41-0.35,0.68-0.42
					c-0.3,0.25-0.36,0.913-0.891,0.76c-0.419,0.243-0.489,0.73-0.759,1.073c-0.05-0.18,0.11-0.33,0.069-0.51
					c-0.129,0.23-0.4,0.35-0.51,0.6c-0.129,0.35-0.05,0.72-0.12,1.08c-0.009,0.03-0.019,0.06-0.019,0.09
					c-1.13,0.24-0.99-0.08-0.92-0.257c-0.13,0.13-0.13,0.13-0.22,0.17c-0.021-0.057-0.031-0.12-0.05-0.17
					c-0.06,0.01-0.151,0.05-0.211,0.09c0.021,0.01,0.05,0.03,0.07,0.04c-0.029,0.07-0.07,0.15-0.319,0.15
					c0.04-0.06,0.12-0.12,0.189-0.16c-0.069-0.02-0.069-0.02-0.57,0.18c0.031,0.01,0.06,0.03,0.081,0.05
					c-0.01,0.04-0.021,0.08-0.04,0.11c-0.771,0.28-1.401,0.35-1.9,0.35c-0.18,0-0.34-0.01-0.481-0.024
					c-0.9-0.11-1.71-0.62-2.64-0.58h-0.11c-1.159,0.05-2.249-0.73-2.369-0.82c-0.01,0.02-0.021,0.06-0.031,0.08 M320.741,150.773
					c-0.11-0.27-0.05-0.59,0.06-1.02c-0.7-0.15-1.44-0.06-2.141-0.26c-0.85,1.28-1.14-0.29-1.15-0.31
					c-0.04-0.25-0.04-0.25,0.741-1.98c-0.481-0.45-1.461-0.96-2.681,0.7c-0.249,0.01-0.489-0.054-0.719-0.12
					c-0.28-0.08-0.549-0.15-0.85-0.1c-0.491,0.1-0.62,0.25-0.99,0.71c-0.16-0.07-0.12-0.3-0.28-0.38
					c-0.33,0.51-0.089,1.13-0.33,1.65c0.13-0.08,0.13-0.08,0.27-0.54c0.05,0.15,0.091,0.3-0.1,0.57c-0.24,0.31-0.62,0.46-0.85,0.76
					c-0.251,0.33-0.031,0.71-0.141,1.044c-0.86,0.16-0.86,0.16-0.939,0.24c-0.541-0.68-0.731-0.91-1.921-1.47
					c-2.589-1.22-2.809-1.57-3.509-3.21c-0.33,0.04-0.611-0.08-0.9-0.22c-0.311-0.13-0.601-0.26-0.951-0.2
					c-0.457,0.08-0.67,0.44-0.93,0.9c0.261,0.216,0.63,0.487,0.91,0.686c1.941,1.38,1.621,2.39,1.051,3.47
					c-0.489,0.92-0.33,1.26,0.601,3.15c-0.211,0.42-0.57,0.74-0.781,1.17c0.51,0.404,1.221,0.43,1.67,0.94
					c0.35,0.4,0.319,0.64,0.259,1.25c0.185,0.11,0.371,0.07,0.551,0.02c0.12-0.03,0.24-0.07,0.36-0.05
					c1.039-1.12,1.354-1.46,2.84-1.94c1.074-0.34,1.66-0.53,2.68-1.73c0,0,0.251-0.5-0.01-0.92c-0.24-0.39-0.74-0.4-1.027-0.72
					c0.44-0.65,1.231-0.58,1.83-0.9c0.04,0.52-0.39,0.85-0.53,1.31c0.35,0.46-0.166,0.99,0.12,1.46h0.01
					c-0.27,0.53-1.26,0.69-0.985,1.47c0.21-0.01,0.27-0.01,0.829-0.38c-0.469,0.89-1.559,1.01-2.17,1.73
					c-0.06-0.1-0.089-0.13-0.16-0.18c-0.07-0.01-0.12-0.01-0.18-0.01c-1.059,0-1.38,1.37-2.4,1.41c-0.609,0.82-0.75,1.03-0.659,1.44
					c0.28-0.13,0.464-0.41,0.79-0.45c0.04,0.05,0.07,0.13,0.089,0.18c0.19-0.15,0.421-0.37,0.614-0.52
					c0.941-0.68,2.18-0.69,3.111-1.38c0.829-0.6,1.09-1.7,1.93-2.3c0.36-0.25,0.39-0.27,0.93-0.58c0.141-0.62,0.69-0.98,0.99-1.5
					c0.016,0.06,0.054,0.14,0.085,0.19l0.36-0.04c0.021,0.03,0.05,0.07,0.06,0.1c-0.16,0.26-0.41,0.46-0.56,0.73l0.089-0.09
					c0.031,0,0.081,0.01,0.11,0.01c-0.05,0.32-0.149,0.38-0.299,0.5c0.009,0.03,0.029,0.06,0.04,0.09
					c0.47,0.11,0.249,0.4,0.23,0.417c-0.551,0.69-1.391,1.05-1.95,1.73l0.029,0.1h0.17c0.081-0.01,0.161-0.02,0.251,0
					c0,0.32-0.319,0.43-0.45,0.67c0.04,0,0.07-0.01,0.11-0.01c0.27,0.006,0.19,0.39,0.46,0.4c0.17,0.01,0.251-0.15,0.35-0.36
					c0-0.01,0.69-1.19,0.73-1.215c0.021,0.03,0.06,0.07,0.086,0.1c-0.029,0.13-0.05,0.2-0.129,0.32c0.1-0.13,0.27-0.36,0.529-0.74
					c-0.06,0.01-0.149,0.01-0.21,0.01c-0.021-0.16-0.029-0.23,0.23-0.44c0.06,0.01,0.141,0.04,0.201,0.08
					c0.45-0.14,0.939-1.24,0.939-1.25c-0.021,0.28,0.23,0.23,0.5,0.19c0.161-0.02,0.311-0.05,0.421-0.01
					c0.028,0.17,0.04,0.24-0.163,0.72c0.601-0.3,0.601-0.3,0.711,1.36c0.12-0.21,0.27-0.48,0.4-0.69
					c1.65-2.95,2.081-4.17,2.421-5.16c-0.141-0.29-0.551-0.27-0.671-0.58 M301.724,168.395c-0.021-0.65-0.17-0.84-1.02-0.29
					c-0.17-0.22,0-0.56-0.261-0.76c-0.309,0.537-0.489,1.15-0.929,1.62c0.309-0.053,0.419-0.37,0.67-0.5
					c0.079,0.08,0.029,0.2,0.07,0.28c0.079,0.01,0.095,0.01,0.255-0.11c-0.069,0.33-0.39,0.49-0.539,0.76
					c0.029,0.02,0.06,0.03,0.089,0.05c0.211,0.14,0.275,0.28,0.261,0.595c-0.651,0.46-1.174,1.06-1.776,1.57
					c0.041,1.09-0.69,1.47-1.31,1.59c-0.709,0.13-0.819,0.15-1.749,1.11c-0.491,0.5-0.551,1.25-1.03,1.75
					c-0.371,0.39-1.061,0.42-1.2,1.06c-0.141,0.56,0.939-0.01,0.96-0.03c0.01-0.01,0.99-1.42,0.97-1.5
					c-0.04-0.02-0.081-0.03-0.11-0.03c2.58-1.83,2.58-1.83,2.719-1.96c-0.05-0.1-0.149-0.09-0.23-0.14
					c-0.04-0.26,0.8-0.41,1.08-0.19c0.441,0.34,0.091,1.42,0.821,1.34c0.05-0.1,0.141-0.22,0.16-0.32
					c0.05-0.19,0.05-0.27-0.183-0.71c-0.23-0.39-0.06-0.71,0.019-0.88c0.271-0.5,0.64-0.71,0.711-0.54
					c0.05,0.12-0.089,0.24,0.01,0.36c0.019,0.03,0.079,0.04,0.27-0.03c0.311-0.25,0.63-0.5,0.93-0.75
					c0.01-0.03,0.029-0.08,0.04-0.12c-0.01-0.01-0.029-0.03-0.029-0.04c-0.321,0.04-0.561,0.38-0.92,0.25
					c-0.021-0.01-0.05-0.07-0.031-0.1c0.06-0.13,0.201-0.27,0.284-0.38c0.45-0.55,1.1-0.85,1.519-1.42
					c0.251-0.34,0.24-0.78,0.407-1.14c-0.86,0.47-0.91,0.17-0.929-0.4 M315.442,157.41c-0.029,0.04-0.066,0.07-0.104,0.12
					c0.019-0.01,0.019-0.016,0.11-0.126 M311.968,164.874c0.23-0.304,0.29-0.446,0.29-0.634c0.489-0.21,0.539-0.23,0.929-0.63
					c-0.139,0.41-0.489,1.48,0.58,0.95c0.261-0.125,1.53-0.99,1.93-1.64c0.901-1.46,0.17-1.4-0.069-1.34
					c-0.19,0.035-0.4,0.15-0.53,0.21c-0.19-0.17-0.151-0.5-0.081-1.09c0.07-0.59,0.044-0.76-0.05-0.94
					c-0.076-0.08-0.16-0.11-0.249-0.11c-1.071,0-3.361,5.23-3.38,5.29c0.35-0.24,0.63-0.44,0.62-0.06 M328,133.41l-0.019,0.16
					c-0.671,5.8-3.008,10.47-5.131,14.4c0.021-0.02,3.49-3.45,4.87-12.4l-0.27,1.9c-1.316,6.29-1.341,6.41-2.497,9.78
					c-0.649,1.64-1.47,3.85-2.189,5.46l-0.081,0.17c-0.5,1.06-1.221,2.44-1.76,3.48c-1.461,2.45-2.261,3.8-2.93,4.83l0.01-0.02
					c-0.75,0.95-1.37,1.99-2.149,2.92l-2.81,3c-0.53,0.57-0.721,0.9-0.721,0.9c0.01,0.01,0.021,0.02,0.031,0.02
					c0.259-0.19,0.79-0.64,1.629-1.57c-2.432,2.88-2.954,3.41-5.329,5.64c-3.43,2.95-6.13,5.27-11.26,8.22
					c-2.711,1.55-5.59,2.81-8.604,3.77c0.07-0.17,0.18-0.39,0.251-0.55c0.19-0.02,0.19-0.02,3.619-2.31
					c-0.309,0.1-0.749,0.19-1.07,0.2c1.281-0.82,4.07-2.53,4.1-2.54c-0.149-0.06-0.349-0.13-0.5-0.18
					c0.311-0.19,0.781-0.37,1.13-0.44c-0.539-0.11-0.539-0.11-2.8,0.867c0.251,0.08,0.57,0.252,0.7,0.47
					c-0.5,0.432-0.5,0.432-5.789,1.1c-0.091-0.3-0.081-0.758,0.05-1.04l-0.271-0.47c0.221-0.29,0.57-0.62,0.851-0.84
					c-0.021-0.17-0.041-0.404-0.06-0.574c0.91-0.3,0.91-0.3,3.08-3.4c-0.68-2.38,2.759-4.56,4.019-4.6c0.05,0.32,0.05,0.77,0,1.08
					c0.12,0.01,0.12,0.01,2.821-1.29c0.11-0.36,0.28-0.83,0.4-1.19c-0.07,0.04-0.07,0.04-1.9,1.68c-0.419-1.74,1.73-2.11,1.88-3.55
					c-0.21-0.24-0.489-0.58-0.67-0.85c0.4-0.89,0.85-1.91,0.07-4.25c-0.16,0.033-0.371,0.08-0.53,0.12
					c-0.021-0.32-0.13-0.74-0.28-1.02c-0.33-0.04-0.73-0.19-1.01-0.36c1.26-1.7,4.429-1.56,4.349-4.51
					c-1.47-0.66-3.269-0.26-4.57-1.46c1.56-1.83,1.391-4.54,3.171-6.26c3.399,0.5,0.68-4.82,1.229-7.2
					c-0.649-0.68-0.919-0.97-1.47-2.69c-0.79-2.5-1.73-4.95-2.47-7.462c-0.929-3.1,1.55-6.1,0.271-9.2l4.18-7.619
					c1.849-0.681,3.209-2.13,4.91-3.051c1.289,1.47,8.38,4.96,9.099,5.07c0.56-0.79,0.651-1.089,0.8-2.16
					c1.43,0.76,1.43,0.76,2.17,0.75c0.081-0.25,0.251-0.58,0.251-0.85c0,0,9.459,9.51,9.5,13.69c-0.07,1.88-0.141,4.39-0.3,6.25
					 M318.002,161.231c0.01-0.01,0.021-0.02,0.021-0.03v0.01l-0.01,0.01L318.002,161.231z M315.411,164.801
					c0.3-0.36,0.601-0.76,0.93-1.2l1.67-2.36c-0.75,1.16-1.33,1.94-2.5,3.46c-0.031,0.03-0.06,0.08-0.101,0.11 M246.212,124.731
					c-0.111,0-0.221-0.01-0.32-0.01c-0.18,0-0.35-0.01-0.52,0c-0.11-1.01,1.55-0.86,1.93-0.56c0.03,0.021,0.06,0.05,0.09,0.081
					c0,0.02,0.021,0.029,0.029,0.05c-0.33,0.27-0.52,0.39-0.92,0.42c-0.09,0-0.18,0.01-0.28,0.01 M281.26,173.671h-0.047
					c-0.481-0.05-0.481-0.05-1.89-0.92c-0.35,0.5-0.497,0.51-1.111,0.56c0.01-0.04,0.01-0.09,0.01-0.14
					c-0.081-0.17-0.27-0.24-0.35-0.42c-0.04-0.09,0.013-0.23,0.04-0.32c0.13-0.01,0.24,0.01,0.371,0.05
					c0.13,0.03,0.259,0.06,0.384,0.04c0.22-0.03,0.33-0.16,0.21-0.25c-0.079-0.05-0.16-0.04-0.24-0.03
					c-0.089,0.01-0.179,0.02-0.249-0.05c-0.07-0.05,0.01-0.19,0.06-0.27c0.62,0.09,0.81,0.1,1.16-0.29
					c-0.201-0.04-0.271-0.05-0.111-0.31c2.031-0.36,2.945,0.27,3.695,1.31c-0.11,0.14-0.161,0.31-0.251,0.456
					c-0.319,0.506-1.42,0.59-1.66,0.59 M240.081,124.977c0.95-0.035,1.3-0.155,1.52-0.795c0.549,0.88,0.68,0.856,2.919,0.466
					c0.021,0.28,0.051,0.55,0.07,0.83c-1.51,0.88-2.51,1.46-3.653,1.59c-0.09,0.01-0.17,0.01-0.251,0.01
					c-0.3,0-0.519-0.04-0.81-0.15c0.84-0.3,0.49-0.63,0.39-0.65c-0.02-0.01-0.06-0.01-0.09-0.01h-0.05
					c-0.01-0.172-0.022-0.34,0.028-0.402c0.15-0.18,0.39-0.18,0.56-0.3c-0.32-0.22-0.54-0.15-1.01,0.07
					c-0.33,0.15-0.58,0.26-0.943,0.22c0.06-0.69,0.38-0.82,1.31-0.87 M235.892,135.056c-0.03-0.08-0.07-0.2-0.11-0.29
					c-1.23-3.92,2.2-4.83,2.35-4.87c0.17,0.2,0.21,0.25,0.1,0.45c-0.24,0.38-0.17,0.74,0.16,0.73c0.64-0.02,0.64-0.02,0.66,0.003
					c0.01,0.01,0.03,0.03,0.04,0.05c0.09,0.15-0.24,0.59-0.24,0.59c-0.11,0.08-0.3,0.06-0.6,0.02c-0.15,0.53-0.37,1.02-0.54,1.54
					c0.4-0.05,0.51-0.21,0.579-0.31c0.111,0.62,0.07,0.683-0.4,1.31c-0.26-0.57-0.48-0.67-0.68-0.29c-0.09-0.68-0.09-0.68,0.41-2.14
					c-0.17-0.25-0.33-0.32-0.68-0.31c0.08,0.54,0.08,0.78-0.04,1.53c-0.13,0.78-0.08,1.02,0.27,1.53c-0.49-0.018-0.86,0.33-1.3,0.44
					"/>
				<path fill="#999999" stroke="#333333" stroke-miterlimit="10" d="M232.261,132.407c-1.043,0-1.423-0.392-1.86-1.244
					c0.425,0.016,0.715-0.163,1.137-0.464c0.74-0.52,1.178-0.68,1.956,0.02c1.104-0.91,1.65-1.66,2.349-3.15
					c0.395,0.09,0.675,0.08,1.451-0.04h0.02c0.612-0.11,1.14-0.19,1.572-0.12c0.053,0.01,0.119,0.03,0.173,0.04
					c-0.621,1.42-2.573,1.7-2.9,3.38c-2.792,1.4-2.792,1.4-3.756,1.55h-0.141 M298.482,163.379c-0.185,0.18-0.185,0.18-0.784,1.06
					c-0.401,0.58-0.441,0.64-1.027,0.45c-0.709,0.66-0.709,0.66-2.63,1.7c-0.63,0.34-0.9,0.54-0.9,0.54
					c-0.05,0.07-0.06,0.19-0.081,0.29c-0.11,0.47-0.199,0.61-0.45,0.97c-0.35-0.02-0.659-0.35-1.039-0.12
					c-0.01,0.62-0.021,0.75-0.541,1.24c0.021-0.04,0.04-0.1,0.06-0.14c0.05-0.21,0.04-0.29-0.22-0.53
					c-0.34-0.33-0.381-0.51,0.04-1.09c-0.199,0.1-0.36,0.12-0.46,0.06c-0.029-0.15,0.11-0.28,0.149-0.31
					c0.051-0.04,0.141-0.03,0.18-0.06c0.371-0.26,0.551-0.79,1.08-0.84c-0.299-0.11-0.349-0.19-0.11-0.56
					c0.141,0.01,0.201,0.16,0.311,0.22c0.07-0.07,0.07-0.07,0.149-0.29c0.19-0.02,0.11,0.25,0.19,0.37
					c0.41-0.15,0.379-0.63,0.68-0.86c0.21,0.05,0.41,0.11,0.61,0.16c0.321-0.35,0.74-0.59,1.021-0.99
					c-0.261-0.08-0.53-0.14-0.8-0.22c0.249-0.43,0.759-0.59,1.01-1.01c-0.36-0.22-0.421-0.26-0.44-0.48
					c0.069-0.08,0.179-0.18,0.299-0.2c0.091-0.02,0.18,0,0.271,0.03c0.089,0.01,0.17,0.03,0.259,0.03c0.27-0.49,0-1,0.07-1.5
					c0.999,0.76,2.429,0.86,3.169,2.03"/>
				<path fill="#999999" stroke="#333333" stroke-miterlimit="10" d="M241.038,114.55c-0.006-0.108-0.012-0.195-0.02-0.281
					c-0.574,0-0.938,0.774-0.66,1.134c0.33-0.115,0.086-0.597,0.444-0.686c0.021-0.007,0.032-0.007,0.051-0.007
					c0.058,0.29-0.008,0.39-0.158,0.55c-0.15,0.149-0.216,0.259-0.157,0.54c0.237-0.12,0.546-0.39,0.5-1.24 M236.887,156.521
					c-0.04,0.08-0.04,0.08-0.097,0.13c0,0.02,0,0.02,0.34,0.58c0.07-0.04,0.11-0.06,0.19-0.08c0.19-0.03,0.31-0.02,0.63,0.04
					s0.48,0.08,0.55-0.09l-0.1-0.07c-1.31-1.06-1.979-1.59-2.44-3.39c-0.21,0.1-0.33-0.04-0.451-0.19c-0.1-0.1-0.2-0.21-0.33-0.21
					c-0.05,0-0.09,0.01-0.13,0.03c-0.05,0.98,1.01,2.72,1.8,3.27 M239.169,159.981c-0.16-0.33-0.47-0.96,0.37-1.02
					c-0.16-0.29-0.19-0.35-0.22-0.75c-0.02-0.21-0.07-0.32-0.19-0.46c-0.051-0.05-0.12-0.12-0.18-0.17c0.02,0.63-0.45,0.55-1.5,0.36
					c0,0.23-0.19,0.42-0.16,0.66c0.02,0.2,0.03,0.21,0.29,0.45c-0.54-0.05-1.05-0.32-1.6-0.32c-0.08,0-0.15,0-0.23,0.02
					c-0.2,0.07-0.3,0.15-0.46,0.35c1.73,0.9,2.42,1.17,3.86,0.9 M237.569,174.841c-0.03-0.09-0.09-0.13-0.11-0.14
					c-0.23-0.13-0.39-0.18-0.51-0.18c-0.1,0-0.16,0.04-0.22,0.09c-0.01,0-0.021,0.01-0.021,0.01c0.57,0.24,0.91,0.38,0.86,0.21
					 M238.439,174.851c0.07-0.01,0.14-0.01,0.21-0.01c0.35,0,0.621,0.13,1.04,0.41c-0.06-0.2,0.02-0.23,0.33-0.41
					c-0.04-0.01-0.11-0.04-0.149-0.05c-0.35-0.11-0.6-0.13-0.89-0.14c-0.47-0.03-0.65-0.07-1.05-0.22c0.43,0.3,0.26,0.37,0.17,0.39
					c-0.13,0.03-0.26-0.03-0.3-0.05c0.24,0.14,0.31,0.15,0.64,0.11 M240.739,178.371c0.46,0.31,0.26,0.35,0.12,0.38
					c-0.15,0.03-0.22,0.04-0.23,0.11c0.45,0.05,0.72-0.01,1.36-0.14c-0.201-0.09-0.44-0.04-0.63-0.17
					c-0.06-0.04-0.251-0.19-0.03-0.28c0.27-0.1,0.3-0.12,0.05-0.22c-0.36-0.15-0.41-0.07-0.44,0c-0.07,0.13-0.179,0.11-0.75-0.25
					c-0.02,0.07-0.059,0.07-0.24-0.02c0.03,0.06,0.14,0.09,0.14,0.09c0.06,0.02,0.44,0.27,0.43,0.33c-0.04,0.01-0.08,0.01-0.35-0.06
					c-0.3-0.08-0.55-0.15-0.5-0.03c0.349,0.16,0.949,0.43,1.04,0.29 M243.569,154.131c-0.02-0.04-0.03-0.09-0.05-0.12
					c-0.46-0.76-1.47-0.47-2.14-0.28c-0.33,0.09-0.52,0.14-0.67,0.13c0.69,0.59,1.52,0.67,2.86,0.26 M238.679,156.941
					c0.73,0.55,1.51,0.32,1.83-0.01c-0.12-0.2-0.29-0.14-0.46-0.08c-0.11,0.03-0.2,0.07-0.289,0.05c-0.07-0.19-0.021-0.25,0.28-0.25
					c0.31,0,0.43-0.03,0.349-0.25c0.111,0.02,0.111,0.02,0.35,0.49c0.44,0,0.5-0.28,0.53-0.66c0.03-0.37,0.05-0.46,0.17-0.61
					l-0.07-0.11c-0.32-0.44-0.73-0.35-0.76,0.05c-0.01,0.07,0,0.15,0.01,0.22c-0.56-0.3-0.919-0.98-1.23-1.66
					c-0.1,0.02-0.179-0.01-0.259-0.05c-0.09-0.04-0.18-0.07-0.281-0.04c0.14,0.46,0.14,0.46,0.16,0.88c0.01,0.4,0.08,0.6,0.26,0.95
					c-0.421-0.15-0.281-0.58-0.44-0.86l-0.09-0.02c-0.03,0.01-0.05,0.02-0.11,0.06c0.68,1.13,0.49,1.35,0.03,1.9 M240.769,153.191
					c-0.76-0.58-1.59-0.65-2.74-0.73c0.13,0.19,0.39,0.6,0.94,0.76c0.221,0.05,0.41,0.07,0.63,0.08c0.21,0,0.43-0.01,0.64-0.03
					c0.2-0.01,0.4-0.03,0.6-0.02c-0.021-0.02-0.06-0.04-0.08-0.06 M256.429,176.421c0.021,0,0.06,0.01,0.12-0.01
					c0.081-0.03,0.149-0.08,0.23-0.1c0-0.02-0.01-0.02-0.021-0.03c-0.17-0.15-0.299-0.17-0.4-0.17c0.081,0.09,0.221,0.25,0.111,0.24
					c-0.051-0.01-0.161-0.07-0.211-0.1C256.29,176.311,256.329,176.411,256.429,176.421 M265.049,101.891
					c-0.74,2.02-2.97,3.11-3.399,5.34c-4.23,2.61-4.23,2.61-5.791,2.05c-1.979,1.421-3.32,3.481-5.1,5.1l0.36,0.621
					c-0.17,0.09-0.39,0.2-0.57,0.28c-0.06-0.21-0.14-0.48-0.21-0.689c-0.63,0.779-1.73,0.819-2.42,1.509
					c-0.06-0.4-0.35-0.879-0.62-1.16c-1.93,0.7-1.93,0.7-3.44,0.75c-0.21,1.089-1.29,1.48-1.83,2.3c-0.11-0.379-0.33-0.88-0.58-1.19
					c-0.149,0.4-0.3,0.949-0.36,1.37c-0.05,0-4.25-0.58-4.51-2.72c-0.35-0.21-0.77-0.56-1.04-0.87c-3.37,1.229-3.37,1.229-3.83,1.07
					c-2.17,1.16-2.64,4.58-0.93,6.92c0.03,0.2,0.04,0.41,0.06,0.62c-0.56,0.68-0.56,0.68-4.79,2.16c1.11,1.86,1.45,4.04,2.49,5.92
					c-0.99,0.54-3.34,1.49-3.81-1.54c-0.39-0.13-0.39-0.13-2.5-0.52c-3.13,3.52-0.38,12.97,3.6,12.33c0.96-0.15,1.86-0.78,2.53-1.24
					c0.97,0.52,1.921,0.34,2.88,0.15c0.61-0.12,1.21-0.25,1.82-0.18l0.45-5.48c-0.319-0.23-0.749-0.57-1.059-0.82
					c3.27-0.77,2.73,3.28,2.56,4.6c-0.22,1.61-0.22,1.61,3.22,5.16l0.69-0.12l0.11,0.12c-0.17,0.07-0.32,0.148-0.47,0.22
					c-0.14,0.07-0.021,0.28,0.119,0.21c0.16-0.083,0.33-0.16,0.511-0.23c3.78,4.49,3.8,4.53,4.88,6.52
					c0.37,0.01,0.87,0.02,1.24,0.037c0.1,0.15,0.221,0.35,0.32,0.5c0.35,0.01,0.83-0.06,1.16-0.17c0.17,0.1,0.4,0.23,0.56,0.34
					l-0.42,0.47c0.47,1.01,1.01,2.16,4.749,2.54l-0.199-0.09c-0.261-0.32-0.5-0.84-0.58-1.25c0.44,0,1.04,0.15,1.43,0.35
					c5.16-2.86,4.96,1.77,4.771,3.27c1.549-0.13,1.549-0.13,2.149-0.25c0.04-0.17,0.11-0.4,0.16-0.57l-0.029-0.21
					c0.379,0.12,0.869,0.37,1.179,0.61c0.05-0.2,0.11-0.47,0.16-0.68c0.17-0.06,0.41-0.15,0.59-0.21c0.309,0.3,0.599,0.82,0.73,1.22
					c-0.16,0.09-0.379,0.2-0.53,0.29c0.331,0.93,0.331,0.93-2.029,2.01c0.149,0.36,0.41,0.8,0.651,1.09l-0.891-0.01
					c-0.889-0.985-1.451-2.25-2.51-3.09c-1.07,2.15-3.051,0.65-4.11-1.09c0.04,0.43,0.19,1,0.36,1.4
					c-0.18,0.01-0.421,0.03-0.601,0.04c0.39,0.17,0.86,0.495,1.16,0.78l-0.371,0.525c-1.039,0.18-1.399,0.24-3.06-0.5
					c0.24,0.32,0.73,0.66,1.13,0.74l0.261-0.02l0.45,0.567c6.929,0.67,6.929,0.67,8.27,1.5c0.079,0.45,0.139,0.89,0.21,1.33
					c-2.44,1.54-2.44,1.54-3.679,6.78c-1.42-1.453-1.73-1.5-2.561-1.6c-0.489,0.53-0.67,0.73-0.11,1.81
					c-1.14,1.76-1.14,1.76-3.31,2.1c-1.75-2.553-1.75-2.553-2.219-2.9c0.98-2.8-2.52-3.43-2.55-3.43c-0.56-1.91-0.56-1.91-1.71-2.85
					c-0.11,0.18-0.28,0.42-0.39,0.6c0.289,0.24,0.56,0.71,0.63,1.08c-0.13,0.16-0.311,0.37-0.451,0.53c0.21,0.36,0.5,0.82,0.74,1.15
					c-1.319,0.79-1.84,2.36-3.14,3.15c-0.13,0.72,0.12,1.42,0.12,2.14c0.43,0.43,0.43,0.43,7.8,3.83l-0.28-0.24
					c-0.97-0.82-0.97-0.82-1.65-1.28c0.09-0.17,0.2-0.4,0.28-0.57c0.37,0.034,0.83,0.17,1.16,0.32c0.33-0.2,0.83-0.38,1.221-0.45
					c0.07,0.8-0.29,1.58-0.1,2.38v-0.59c0.62,0.646,1.65,0.66,2.181,1.446c0.16-0.07,0.379-0.16,0.539-0.23
					c-0.01-0.01-0.39-1.64-1.13-2.35c2.22-1.18,2.22-1.18,2.41-2.1c0.649-0.16,1.219-0.53,1.849-0.78c0.05,0.19,0.13,0.44,0.17,0.63
					c-0.089,0.16-0.21,0.38-0.299,0.55c0.35-0.15,0.769-0.44,1.049-0.7c0.28,0.24,0.661,0.55,0.941,0.783
					c-0.711,1.93-0.711,1.93-0.711,2.195c0.34-0.22,0.73-0.65,0.91-1.02c0.661,0.02,0.661,0.02,1.79,0.9
					c-0.421,0.804-1.229,1.27-1.689,2.04c0.119,0.14,0.28,0.33,0.39,0.47c-0.1,0.43-0.1,0.43-1.631,2.41
					c0.05,0.2,0.13,0.46,0.19,0.66c-0.04,0.02-4.489,1.9-5.341-1.32c0.13-0.13,0.321-0.29,0.451-0.42
					c-0.281-0.357-0.721-0.77-1.081-1.04c-0.179,0.04-0.409,0.1-0.579,0.15c0.1,0.16,0.22,0.37,0.319,0.52
					c-0.57,1.46-0.379,1.55,2.9,2.94c-0.709,0.61-0.709,0.61-3.66,0.14l-0.31-0.54c0.14-0.11,0.34-0.26,0.48-0.37
					c-0.766-0.753-0.766-0.753-2.23-1.02c0.83,2.1,0.83,2.1,2.4,2.64l-0.499,0.39c-0.421-0.21-0.98-0.52-1.386-0.76l0.67,0.46
					l-0.319,0.526c0.196,0.378,0.48,0.858,0.736,1.196c-0.03,0.06-0.07,0.13-0.09,0.19c-0.45,0.15-1.02,0.33-3.3-0.78
					c0.17-0.132,0.404-0.3,0.573-0.44c0.262,0.06,0.62,0.15,0.89,0.17c-1.07-0.34-1.07-0.34-1.72-0.76
					c0.02-0.17,0.05-0.41,0.06-0.59c-1.25,0.09-1.35-0.14-1.72-1.02c-0.07,0.35-0.06,0.85,0.03,1.2c-0.14,0.11-0.34,0.25-0.48,0.36
					c0.16,0.07,0.38,0.168,0.54,0.24l0.37,0.18l-0.61-0.14c0.141,0.14,0.32,0.32,0.451,0.46c-0.3,0.306-0.81,0.61-1.2,0.77
					c1.16,0.99,2.49,1.74,3.68,2.68c-0.19,0.04-0.33,0.06-0.48,0.06c-0.46,0-1.051-0.23-3.35-1.13c0.14,0.07,0.29,0.15,0.45,0.22
					c0.16,0.06,0.38,0.15,0.55,0.21c-2.45-0.79-6.67-3.11-8.26-3.98h-0.02c-0.63-0.37-1.45-0.88-2.063-1.26l0.14,0.08l0.67,0.33
					l0.341,0.21l0.6,0.31c-0.26-0.19-0.585-0.37-0.9-0.56c0.19,0.04,0.44,0.07,0.63,0.1c-1.67-1.53-3.25-3.16-4.98-4.64
					c0.38,0.26,0.881,0.62,1.251,0.896c-2.59-2.53-2.59-2.53-2.63-2.69c-0.364-0.29-0.73-0.57-1.09-0.87
					c-12.02-17.21-12.02-17.21-12.554-18.53c-1.03-2.52-0.2-5.31-1.1-7.85c-1.4-3.93-0.09-7.22-0.07-7.245
					c0.82,9.36,0.82,9.36,1.07,10.07c0.14-0.14,0.33-0.33,0.47-0.48c-3.24-15.19,2.56-19.85,4.46-21.38
					c0.19,0.08,0.44,0.18,0.64,0.24c2.06-1.53,6.74-7.76,6.78-7.82c-0.027-0.479-0.05-0.96-0.06-1.45c1.41-0.689,2-2.36,3.5-2.96
					c-0.02-0.18-0.05-0.42-0.059-0.59c0.349-0.13,0.8-0.36,1.11-0.56c0.11,0.15,0.27,0.34,0.379,0.49
					c-0.089,0.16-0.21,0.39-0.3,0.549c0.26,0.251,0.7,0.52,1.05,0.64c0.17-0.33,0.44-0.73,0.68-1.01c1.09-4.79,1.09-4.79-0.7-7.81
					c-0.19-0.03-0.43-0.08-0.61-0.119c-0.104-1.16-0.47-2.29-0.42-3.471c0.35-0.229,0.75-0.61,1.01-0.919l-0.66-0.34
					c-0.481-1.56,0.05-2.54,0.06-2.55c1.65-2.81,4.659-4.63,5.7-7.88c0.02-0.07,0.02-0.07,5.567-4.549
					c4.98-4.021-0.7-12.52,6.56-15.581l-0.39,0.481c0.33-0.19,0.72-0.54,0.94-0.85c-0.199,0.04-0.47,0.089-0.67,0.13
					c1.02-0.99,1.02-0.99,1.43-1.13c0.12-0.189-0.01-0.17-0.149-0.139c2.129-1.284,4.5-2.021,7.03-2.19
					c-2.321,0.747-2.321,0.747-2.941,1.911c-0.17,0.04-0.4,0.089-0.57,0.13c0.17,0.345,0.27,0.859,0.259,1.236
					c0.19-0.033,0.431-0.084,0.601-0.12c-0.29,0.2-0.75,0.39-1.1,0.43c0.39,0.175,0.96,0.29,1.39,0.3l0.079,0.651
					c1.94,0.16,1.95,0.176,2.771,0.779c-0.07,0.24-0.17,0.56-0.23,0.79c3.44,1.51,3.44,1.51,5.859,4.44
					c-0.249,1.969-0.249,1.969,6.431,3.749c0.56,0.98,1.349,1.83,1.89,2.821c0.21,0.56,0.369,0.56,0.539,0.56
					c0.141,3.59,3.04,5.76,4.481,8.69c0.719,1.48,0.4,2.44-0.06,3.78c-4.891,0.019-8.5,3.78-13.14,4.539"/>
			</g>
			<path fill="#4490CC" d="M18.976,144.513H39.77v-8.24H28.356v-5.706h11.068v-8.24h-11.07v-6.303H39.77v-8.24H18.977v36.73
				L18.976,144.513z M55.253,127.34l-11.366,17.173h10.62l6.304-10.472l6.11,10.48h10.57l-11.21-17.37l12.71-19.359H68.36
				l-7.94,13.01l-7.544-13H42.398l12.855,19.56V127.34z M92.223,127.54h3.424c0.893,0,2.382,0,3.625,0.545
				c1.24,0.546,2.233,1.69,2.233,3.87c0,2.185-1.043,3.228-2.335,3.775c-1.29,0.544-2.828,0.544-3.87,0.544h-3.076v-8.735
				L92.223,127.54z M94.853,144.513c6.8,0,9.33-1.042,11.316-2.68c2.87-2.382,4.31-6.004,4.31-9.727c0-3.722-1.54-7.643-3.87-9.63
				c-2.53-2.133-5.01-3.175-10.72-3.175h-3.67v-11.509h-9.38v36.73h12.01L94.853,144.513z M122.195,126.2
				c0-5.608,3.82-10.87,10.125-10.87c6.65,0,9.875,6.057,9.875,10.77c0,4.764-3.224,10.87-9.975,10.87
				c-6.5,0-10.025-5.56-10.025-10.72V126.2L122.195,126.2z M112.815,125.752c0,12.01,9.232,19.457,19.356,19.457
				c11.32,0,19.41-8.84,19.41-19.06c0-10.23-8.04-19.06-19.45-19.06c-11.56,0-19.3,9.18-19.3,18.61v0.05L112.815,125.752z
				 M156.635,144.512h12.01c5.757,0,9.332-1.04,11.365-2.63c3.078-2.38,4.466-6.005,4.466-10.024c0-2.828-0.793-5.012-1.835-6.65
				c-1.24-1.937-3.02-3.177-4.76-3.921l7.6-13.502h-9.68l-9.58,17.72h1.54c2.39,0,4.42,0.198,5.66,0.99
				c1.14,0.747,2.09,2.484,2.09,4.52c0,1.934-0.94,3.473-2.18,4.267c-1.04,0.646-2.53,0.992-3.82,0.992h-3.47v-28.49h-9.38v36.73
				L156.635,144.512z M193.455,136.274h-7.245v8.24h23.822v-8.24h-7.196v-28.49h-9.38v28.49H193.455z"/>
			<path fill="#FFFFFF" d="M333.669,92.96h7.03v-1.363H335.2v-4.86h5.461V85.35H335.2v-6.226h-1.531V92.96z M360.503,86.042
				c0-3.252,2.445-5.793,5.682-5.793c3.272,0,5.663,2.633,5.663,5.793c0,3.16-2.39,5.797-5.682,5.797
				c-3.254,0-5.663-2.58-5.663-5.78v-0.021V86.042z M358.948,86.004c0,4.264,3.31,7.2,7.218,7.2c4.056,0,7.216-3.103,7.216-7.162
				c0-4.056-3.141-7.158-7.216-7.158c-4.094,0-7.218,3.157-7.218,7.1V86.004z M392.219,92.96h3.603c2.17,0,3.181-0.26,3.89-0.71
				c1.121-0.673,1.89-2.149,1.89-3.72c0.018-0.935-0.243-1.924-0.822-2.71c-0.831-1.124-1.821-1.385-3.09-1.516l3.43-5.18h-1.681
				l-3.911,6.038h0.451c0.97,0,2.319,0.02,3.059,0.713c0.73,0.711,1.04,1.55,1.04,2.544c0,1.021-0.51,2.111-1.37,2.671
				c-0.69,0.45-1.56,0.5-2.81,0.5h-2.17V79.12h-1.55v13.84H392.219z M421.8,92.96v-8.77c0-1.046,0-1.85,0.652-2.785
				c0.485-0.689,1.402-1.156,2.41-1.156c0.992,0,1.908,0.45,2.374,1.14c0.658,0.914,0.658,1.717,0.658,2.803v8.769h1.531v-8.769
				c0.021-1.6-0.188-3.19-1.569-4.261c-0.768-0.649-1.793-1.04-2.992-1.04c-0.973,0-2.188,0.281-3.046,1.05
				c-1.458,1.18-1.574,2.75-1.574,4.26v8.77h1.556V92.96z M449.006,79.125V92.96h2.167l5.127-11.61l5.099,11.61h2.17V79.125h-1.459
				l0.031,12.305l-5.37-12.311h-0.99l-5.38,12.3l0.029-12.311H449L449.006,79.125z"/>
			<path fill="#FFFFFF" d="M214.201,144.513h4.118v-33.102h13.997v-3.626h-18.115V144.513z M236.182,144.513h20.348v-3.622h-16.28
				v-12.75h16.181v-3.62h-16.179v-13.111h16.277v-3.619h-20.348v36.73V144.513z M276.924,139.898l-7.295-18.415h14.642
				l-7.339,18.415H276.924z M264.17,107.785h-4.421l15.331,36.728h3.969l15.181-36.728h-4.47l-4.27,10.325h-17.121l-4.22-10.325
				H264.17z M302.379,111.411h7.289c9.43,0,14.34,5.804,14.34,14.639c0,4.27-1.14,8.04-3.569,10.72
				c-2.34,2.483-5.76,4.12-10.781,4.12h-7.3v-29.479H302.379z M298.309,144.513h10.97c5.21,0,10.771-1.142,14.44-5.51
				c2.97-3.273,4.41-7.593,4.41-12.803c0-11.068-6.309-18.415-18.659-18.415H298.3v36.728H298.309z M360.289,144.513h9.581
				c5.75,0,8.429-0.694,10.319-1.886c2.98-1.785,5.01-5.708,5.01-9.876c0.05-2.48-0.649-5.11-2.189-7.19
				c-2.19-2.98-4.821-3.67-8.191-4.02l9.13-13.75h-4.47l-10.38,16.029h1.19c2.58,0,6.151,0.05,8.13,1.89
				c1.94,1.89,2.78,4.12,2.78,6.75c0,2.73-1.339,5.61-3.619,7.1c-1.84,1.19-4.12,1.34-7.451,1.34h-5.749v-33.11h-4.12v36.73
				L360.289,144.513z M392.099,118.01c0.591-6.104,5.061-7.393,7.341-7.393c3.82,0,7.339,2.927,7.339,6.998
				c0,5.162-4.419,6.302-8.68,7.69c-2.979,0.895-9.379,2.78-9.379,9.73c-0.101,6.5,5.31,10.125,10.91,10.125
				c4.56,0,9.82-2.532,10.419-9.48h-4.048c-0.447,2.38-1.638,6.005-6.5,6.005c-3.676,0-6.703-2.484-6.703-6.302
				c-0.05-4.467,3.575-5.56,9.133-7.447c3.473-1.34,8.93-3.275,8.93-10.024c0-6.006-4.514-10.769-11.363-10.769
				c-6.157,0-11.268,3.87-11.514,10.867h4.119H392.099z M416.36,107.785v36.728h4.06v-16.33h17.72v16.33h4.119v-36.728h-4.119
				v16.777h-17.72v-16.777h-4.07H416.36z M449.599,144.513h4.07v-36.728h-4.07V144.513z M464.829,125.853h5.851
				c3.08,0,4.96,0.35,6.8,1.54c1.59,1.04,2.73,3.373,2.73,5.955c0,2.628-1.14,4.962-2.779,6.005c-1.84,1.19-3.72,1.54-6.85,1.54
				h-5.76v-15.04H464.829z M470.389,144.513c5.16,0,7.59-0.595,9.87-2.332c2.431-1.88,3.921-5.3,3.921-8.73c0-3.47-1.54-7-3.77-8.73
				c-2.431-1.88-4.92-2.48-9.681-2.48h-5.909v-14.45h-4.12v36.73h9.679L470.389,144.513z M354.019,124.512v3.622H343.6
				c-0.56-1.205-1.14-2.413-1.749-3.622h12.18H354.019z M333.769,107.785h20.35v3.626h-16.28v5.585
				c-1.289-2.27-2.649-4.533-4.07-6.796V107.785z M348.85,140.892h5.269v3.622h-4.04c-0.39-1.202-0.8-2.41-1.231-3.622"/>
			<path fill="#EE3156" d="M282.747,196.663c16.778,8.215,32.396,9.392,42.79,1.553c20.517-15.478,12.875-60.207-17.071-99.9
				c-29.002-38.446-68.297-58.07-89.38-45.2c0.6-0.557,1.223-1.072,1.874-1.565c21.48-16.21,64.309,4.34,95.66,45.901
				c31.35,41.569,39.36,88.399,17.87,104.609c-12.3,9.29-31.621,6.49-51.76-5.39"/>
		</g>
	</g>
</g>
</svg>
