<svg xmlns="http://www.w3.org/2000/svg" xmlns:xlink="http://www.w3.org/1999/xlink" width="666.667" height="333.333" viewBox="0 0 666.667 333.333">
  <defs>
    <path id="a" d="M0-111h888.443v444.222H0z"/>
  </defs>
  <clipPath id="b">
    <use xlink:href="#a" overflow="visible"/>
  </clipPath>
  <g transform="matrix(1.333 0 0 -1.333 0 333.333)" clip-path="url(#b)">
    <g fill="#999">
      <path d="M259.406 181.46c.1.042.105.008.117-.006-.01-.006-.016-.014-.022-.016-.16-.114-.24-.153-.23-.114 0 .017.03.046.05.058-.17-.117-.36-.26-.29-.276h.01c-.07-.04-.1-.056-.13-.056-.05.032.33.332.52.41m-6.34-.77c.12-.048.32-.128.85.14-.01-.02-.06-.062-.07-.093.09-.043.09-.043.23.008-.04-.025-.1-.05-.13-.076-.24-.15-.24-.15-.51-.53.11.07.23.03.34.01.1-.03.2-.05.3-.02.5.17.76.64 1.16.94.04-.07.04-.07.21-.17-.2-.5-.97-.35-1.05-.96.03-.02.05-.04.07-.05.13-.04.26-.03.38-.01.13.01.25.02.37-.01.46-.11.84-.41 1.3-.53.08-.02.28-.05.46-.05.99.02.96.68.95.69-.06.27-.7.25-1.08.24-.77-.02-1.07.04-.77.44.73-.01 1.42-.29 2.16-.26-.09-.08-.09-.08-.14-.17.01-.02.02-.04.04-.06.27 0 .92.03 1.19.41-.04.03-.04.03-.17.01 0 .02-.01.05-.01.07.34.15.39.17.96.32.15.04.49.12.66.19.07.03.16.06.23.09.21.09.24.37.45.45 1.01.42 2.12.52 3.1 1.01l.38.2c-.57.31-.96.45-1.55.53-.24.02-.4.04-.54.04-.26 0-.46-.05-1.02-.23-.19.13-.53.22-1.79-.09.01-.02.02-.05.03-.08-.1-.13-.26-.24-.31-.41-.08.02-.08.02-.02.46-.21.24-1.61-.22-1.94-.71.01-.02.01-.05.02-.07.05 0 .11.01.14.02-.02-.01-.05-.02-.07-.04-.96-.43-.36-.72-.36-.72.27-.08.72.07.91.13-.06-.04-.15-.11-.22-.15l-.08-.1c.04-.05.11-.09.17-.11-.04-.11-.17-.2-.27-.26.24.25-.01.29-.03.29-.17.01-.41-.11-.5-.15.02-.02.03-.02.05-.03-.14-.35-1.53-.19-1.58-.02-.02.09.12.4.28.33.26-.1.26-.1.68.12-.08.04-.17.03-.25.07.06.07.08.09.25.17-.01-.02-.01-.05-.02-.06.1.03.1.03.27.12-.02.01-.04.01-.06.02-.03.13.08.23.07.36-.27.04-.81-.24-.81-.24-.23-.16-.28-.46-.46-.65-.06.02-.06.02-.32.02-.02.01-.02.04-.03.05-.38-.2-.38-.93-.96-.82-.02.04-.04.09-.04.13-.09.03-.11.03-.5-.14.31.24.68.4 1 .63-.18.27-.36.41-1.24.05.21.16.23.18.27.27-.06.12-.04.13.06.21-.3-.1-.57-.26-.85-.39 0-.03.01-.06.02-.09-.05-.09-.11-.17-.16-.25 0-.03.01-.07.03-.09.09-.02.12-.03.34.01-.46-.28-.43-.36-.38-.47m18.94 2.14c0-.01-.01-.02-.01-.02.11-.09.16-.1.2-.07.03.01.04.02.08.01-.21.1-.22.11-.23.12h.06c.01 0 .02 0 .04.01s.02.02.01.03l.03-.02c.15-.15.19-.26.1-.26-.08 0-.2.07-.2.07s-.16.13-.14.15c.02.02.08-.01.08-.05m.27.12h.05c.02 0 .03 0 .03.01.01 0 .03-.02.04-.03.24-.17.24-.18.24-.19-.01-.01-.04.01-.13.05-.11.05-.17.08-.2.07-.05.05-.1.1-.07.1.02.01.04 0 .06 0m-9.03-.79c-.06-.01-.16-.02-.35-.2l.04-.08c.12-.01.24 0 .35-.04.01-.02.01-.05.01-.08-.76-.43-1.67-.32-2.43-.73.23-.17.25-.2.32-.37-.02 0-.02 0-.46-.26.36-1.6 3.22-.44 2.98-2.15-.05-.38.01-.74 0-1.12 0-.34-.01-.41-.07-.67.83.06.98-.05 1.23-.54-.74.17-.74.17-.92.16-.03-.12-.03-.12.06-.38-.07-.02-.07-.02-.3.11-.31-.66.17-1.03.75-.83.23.07.33.22.39.32-.21-.02-.28 0-.31.18l.07.04c.28-.08.28-.08.41-.18 0-.01-.01-.75-.06-.83-1.09.38-1.51-1.5-1.27-2.29.07-.24.33-.5.53-.64.25-2.06 1.06-3.41 4.5-4.26.06.18.11.41.17.59.29.9.75 1.74 1.04 2.64.09.29.01.74.15 1.01.22.41.85.49 1.15.53.3.04.51.07.72.22.09.06.19.17.26.23.47.42.64 1.05 1.12 1.47.2.19.59.23.85.31 1.78.53 2.14.83 2.53 1.71-.61-.01-.61-.01-.76.17.18-.05.36-.04.54-.02.11 0 .24.01.35 0-.31.66-.99 1.05-1.12 1.12.15.34-.17.59-.18.9.04.02.12.02.18 0-.15.62-.15.62.19 1.07-.42.37-.44.35-.66.26.01-.13.01-.13.41-.42-.38 0-.38 0-.45.06 0 .08 0 .08-.9 1.01l.06.07c.23-.13.41-.35.68-.42-.3.25-.36.91-.89.76-.42.24-.49.73-.76 1.07-.05-.18.11-.33.07-.51-.13.23-.4.35-.51.6-.13.35-.05.72-.12 1.08-.01.03-.02.06-.02.09-1.13.24-.99-.08-.92-.26-.13.13-.13.13-.22.17-.02-.06-.03-.12-.05-.17-.06.01-.15.05-.21.09.02.01.05.03.07.04-.03.07-.07.15-.32.15.04-.06.12-.12.19-.16-.07-.02-.07-.02-.57.18.03.01.06.03.08.05-.01.04-.02.08-.04.11-.77.28-1.4.35-1.9.35-.18 0-.34-.01-.48-.03-.9-.11-1.71-.62-2.64-.58h-.11c-1.16.05-2.25-.73-2.37-.82-.01.02-.02.06-.03.08m57.33-31.25c-.11-.27-.05-.59.06-1.02-.7-.15-1.44-.06-2.14-.26-.85 1.28-1.14-.29-1.15-.31-.04-.25-.04-.25.74-1.98-.48-.45-1.46-.96-2.68.7-.25.01-.49-.058-.72-.12-.28-.08-.55-.15-.85-.1-.49.1-.62.25-.99.71-.16-.07-.12-.3-.28-.38-.33.51-.09 1.13-.33 1.65.13-.08.13-.08.27-.54.05.15.09.3-.1.57-.24.31-.62.46-.85.76-.25.33-.03.71-.14 1.04-.86.16-.86.16-.94.24-.54-.68-.73-.91-1.92-1.47-2.59-1.22-2.81-1.57-3.51-3.21-.33.04-.61-.08-.9-.22-.31-.13-.6-.26-.95-.2-.456.08-.67.44-.93.9.26.214.63.485.91.684 1.94 1.38 1.62 2.39 1.05 3.47-.49.92-.33 1.26.6 3.15-.21.42-.57.74-.78 1.17.51.4 1.22.43 1.67.94.35.4.32.64.26 1.25.186.11.37.07.55.02.12-.03.24-.07.36-.05 1.04-1.12 1.356-1.46 2.84-1.94 1.076-.34 1.66-.53 2.68-1.73 0 0 .25-.5-.01-.92-.24-.39-.74-.4-1.025-.72.44-.65 1.23-.58 1.83-.9.04.52-.39.85-.53 1.31.35.46-.166.99.12 1.46h.01c-.27.53-1.26.69-.985 1.47.21-.01.27-.01.826-.38-.47.89-1.56 1.01-2.17 1.73-.06-.1-.09-.13-.16-.18-.07-.01-.12-.01-.18-.01-1.06 0-1.38 1.37-2.4 1.41-.61.82-.75 1.03-.66 1.44.28-.13.467-.41.79-.45.04.05.07.13.09.18.19-.15.42-.37.616-.52.94-.68 2.18-.69 3.11-1.38.83-.6 1.09-1.7 1.93-2.3.36-.25.39-.27.93-.58.144-.62.69-.98.99-1.5.02.06.057.14.088.19l.36-.04c.02.03.05.07.06.1-.16.26-.41.46-.56.73l.09-.09c.03 0 .08.01.11.01-.05.32-.15.38-.3.5.01.03.03.06.04.09.47.11.25.4.23.414-.55.69-1.39 1.05-1.95 1.73l.03.1h.17c.08-.01.16-.02.25 0 0 .32-.32.43-.45.67.04 0 .07-.01.11-.01.27.005.19.39.46.4.17.01.25-.15.35-.36 0-.01.69-1.19.73-1.216.02.03.06.07.087.1-.03.13-.05.2-.13.32.1-.13.27-.36.53-.74-.06.01-.15.01-.21.01-.02-.16-.03-.23.23-.44.06.01.14.04.2.08.45-.14.94-1.24.94-1.25-.02.28.23.23.5.19.16-.02.31-.05.42-.01.03.17.04.24-.16.72.6-.3.6-.3.71 1.36.12-.21.27-.48.4-.69 1.65-2.95 2.08-4.17 2.42-5.16-.14-.29-.55-.27-.67-.58m-19.05 17.6c-.02-.65-.17-.84-1.02-.29-.17-.22 0-.56-.26-.76-.31.534-.49 1.15-.93 1.62.31-.056.42-.37.67-.5.08.08.03.2.07.28.08.01.096.01.256-.11-.07.33-.39.49-.54.76.03.02.06.03.09.05.21.14.27.28.26.592-.65.46-1.18 1.06-1.78 1.57.04 1.09-.69 1.47-1.31 1.59-.71.13-.82.15-1.75 1.11-.49.5-.55 1.25-1.03 1.75-.37.39-1.06.42-1.2 1.06-.14.56.94-.01.96-.03.01-.01.99-1.42.97-1.5-.04-.02-.08-.03-.11-.03 2.58-1.83 2.58-1.83 2.72-1.96-.05-.1-.15-.09-.23-.14-.04-.26.8-.41 1.08-.19.44.34.09 1.42.82 1.34.05-.1.14-.22.16-.32.05-.19.05-.27-.18-.71-.23-.39-.06-.71.02-.88.27-.5.64-.71.71-.54.05.12-.09.24.01.36.02.03.08.04.27-.03.31-.25.63-.5.93-.75.01-.03.03-.08.04-.12-.01-.01-.03-.03-.03-.04-.32.04-.56.38-.92.25-.02-.01-.05-.07-.03-.1.06-.13.2-.27.28-.38.45-.55 1.1-.85 1.52-1.42.25-.34.24-.78.408-1.14-.86.47-.91.17-.93-.4m13.72-10.98c-.03.04-.06.07-.1.12.02-.01.02-.02.11-.13m-3.48 7.47c.23-.305.29-.447.29-.635.49-.21.54-.23.93-.63-.14.41-.49 1.48.58.95.26-.124 1.53-.99 1.93-1.64.9-1.46.17-1.4-.07-1.34-.19.036-.4.15-.53.21-.19-.17-.15-.5-.08-1.09s.045-.76-.05-.94c-.075-.08-.16-.11-.25-.11-1.07 0-3.36 5.23-3.38 5.29.35-.24.63-.44.62-.06m16-31.42l-.02.16c-.67 5.8-3.006 10.47-5.13 14.4.02-.02 3.49-3.45 4.87-12.4l-.27 1.9c-1.315 6.29-1.34 6.41-2.496 9.78-.65 1.64-1.47 3.85-2.19 5.46l-.08.17c-.5 1.06-1.22 2.44-1.76 3.48-1.46 2.45-2.26 3.8-2.93 4.83l.01-.02c-.75.95-1.37 1.99-2.15 2.92l-2.81 3c-.53.57-.72.9-.72.9.01.01.02.02.03.02.26-.19.79-.64 1.63-1.57-2.432 2.88-2.954 3.41-5.33 5.64-3.43 2.95-6.13 5.27-11.26 8.22-2.71 1.55-5.59 2.81-8.603 3.77.07-.17.18-.39.25-.55.19-.02.19-.02 3.62-2.31-.31.1-.75.19-1.07.2 1.28-.82 4.07-2.53 4.1-2.54-.15-.06-.35-.13-.5-.18.31-.19.78-.37 1.13-.44-.54-.11-.54-.11-2.8.866.25.08.57.252.7.47-.5.432-.5.432-5.79 1.1-.09-.3-.08-.758.05-1.04l-.27-.47c.22-.29.57-.62.85-.84-.02-.17-.04-.404-.06-.574.91-.3.91-.3 3.08-3.4-.68-2.38 2.76-4.56 4.02-4.6.05.32.05.77 0 1.08.12.01.12.01 2.82-1.29.11-.36.28-.83.4-1.19-.07.04-.07.04-1.9 1.68-.417-1.74 1.73-2.11 1.88-3.55-.21-.24-.487-.58-.67-.85.4-.89.85-1.91.07-4.25-.16.033-.37.08-.53.12-.02-.32-.13-.74-.28-1.02-.33-.04-.73-.19-1.01-.36 1.26-1.7 4.43-1.56 4.35-4.51-1.47-.66-3.27-.26-4.57-1.46 1.56-1.83 1.39-4.54 3.17-6.26 3.4.5.68-4.82 1.23-7.2-.65-.68-.92-.97-1.47-2.69-.79-2.5-1.73-4.95-2.47-7.462-.93-3.1 1.55-6.1.27-9.2l4.18-7.61c1.85-.68 3.21-2.13 4.91-3.05 1.29 1.47 8.38 4.96 9.1 5.07.56-.79.65-1.09.8-2.16 1.43.76 1.43.76 2.17.75.08-.25.25-.58.25-.85 0 0 9.46 9.51 9.5 13.69-.07 1.88-.14 4.39-.3 6.25m-9.997 27.8c.01-.01.02-.02.02-.03v.01l-.01.01-.01.01zm-2.59 3.57c.3-.36.6-.76.93-1.2l1.67-2.36c-.75 1.16-1.33 1.94-2.5 3.46-.032.03-.06.08-.102.11m-69.197-40.08c-.11 0-.22-.01-.32-.01-.18 0-.35-.01-.52 0-.11-1.01 1.55-.86 1.93-.56.03.02.06.05.09.08 0 .02.02.03.03.05-.33.27-.52.39-.92.42-.09 0-.18.01-.28.01m35.038 48.95h-.046c-.48-.05-.48-.05-1.89-.92-.35.5-.497.51-1.11.56.01-.04.01-.09.01-.14-.082-.17-.27-.24-.35-.42-.04-.09.012-.23.04-.32.13-.01.24.01.37.05.13.03.26.06.384.04.22-.03.33-.16.21-.25-.08-.05-.16-.04-.24-.03-.09.01-.18.02-.25-.05-.07-.05.01-.19.06-.27.62.09.81.1 1.16-.29-.2-.04-.27-.05-.11-.31 2.03-.36 2.945.27 3.695 1.31-.11.14-.16.31-.25.46-.32.51-1.42.59-1.66.59m-41.2-48.7c.95-.03 1.3-.15 1.52-.79.548.88.68.86 2.918.47.02.28.05.55.07.83-1.51.88-2.51 1.46-3.652 1.59-.09.01-.17.01-.25.01-.3 0-.52-.04-.81-.15.84-.3.49-.63.39-.65-.02-.01-.06-.01-.09-.01h-.05c-.01-.17-.023-.34.027-.4.15-.18.39-.18.56-.3-.32-.22-.54-.15-1.01.07-.33.15-.58.26-.943.22.06-.69.38-.82 1.31-.87m-4.17 10.07c-.03-.08-.07-.2-.11-.29-1.23-3.92 2.2-4.83 2.35-4.87.17.2.21.25.1.45-.24.38-.17.74.16.73.64-.02.64-.02.66.01.01.01.03.03.04.05.09.15-.24.59-.24.59-.11.08-.3.06-.6.02-.15.53-.37 1.02-.54 1.54.4-.05.51-.21.58-.31.11.62.07.688-.4 1.31-.26-.57-.48-.67-.68-.29-.09-.68-.09-.68.41-2.14-.17-.25-.33-.32-.68-.31.08.54.08.78-.04 1.53-.13.78-.08 1.02.27 1.53-.49-.02-.86.33-1.3.44"/>
      <path d="M232.26 132.407c-1.042 0-1.422-.392-1.86-1.244.426.016.716-.163 1.138-.464.74-.52 1.178-.68 1.956.02 1.104-.91 1.65-1.66 2.35-3.15.394.09.674.08 1.45-.04h.02c.612-.11 1.14-.19 1.572-.12.053.01.12.03.173.04-.63 1.42-2.58 1.7-2.9 3.38-2.8 1.4-2.8 1.4-3.76 1.55h-.14m66.22 31c-.19.18-.19.18-.79 1.06-.4.58-.44.64-1.03.45-.71.66-.71.66-2.63 1.7-.63.34-.9.54-.9.54-.05.07-.06.19-.08.29-.11.47-.2.61-.45.97-.35-.02-.66-.35-1.04-.12-.01.62-.02.75-.54 1.24.02-.04.04-.1.06-.14.05-.21.04-.29-.22-.53-.34-.33-.38-.51.04-1.09-.2.1-.36.12-.46.06-.03-.15.11-.28.15-.31.05-.04.14-.03.18-.06.37-.26.55-.79 1.08-.84-.3-.11-.35-.19-.11-.56.14.01.2.16.31.22.07-.07.07-.07.15-.29.19-.02.11.25.19.37.41-.15.37-.63.68-.86.21.05.41.11.61.16.32-.35.74-.59 1.02-.99-.26-.08-.53-.14-.8-.22.25-.43.76-.59 1.01-1.01-.36-.22-.42-.26-.44-.48.07-.08.18-.18.3-.2.09-.02.18 0 .27.03.09.01.17.03.26.03.27-.49 0-1 .07-1.5.99.76 2.42.86 3.16 2.03"/>
      <path d="M241.038 114.55c-.006-.108-.012-.195-.02-.28-.574 0-.938.773-.66 1.133.33-.115.086-.597.444-.686.02-.007.032-.007.05-.007.06.29-.007.39-.157.55-.15.15-.216.26-.157.54.237-.12.546-.39.5-1.24m-4.15 41.96c-.04.08-.04.08-.098.13 0 .02 0 .02.34.58.07-.04.11-.06.19-.08.19-.03.31-.02.63.04s.48.08.55-.09l-.1-.07c-1.31-1.06-1.98-1.59-2.44-3.39-.21.1-.33-.04-.45-.19-.1-.1-.2-.21-.33-.21-.05 0-.09.01-.13.03-.05.98 1.01 2.72 1.8 3.27m2.32 3.44c-.16-.33-.47-.96.37-1.02-.16-.29-.19-.35-.22-.75-.02-.21-.07-.32-.19-.46-.052-.05-.12-.12-.18-.17.02.63-.45.55-1.5.36 0 .23-.19.42-.16.66.02.2.03.21.29.45-.54-.05-1.05-.32-1.6-.32-.08 0-.15 0-.23.02-.2.07-.3.15-.46.35 1.73.9 2.42 1.17 3.86.9m-1.58 14.84c-.03-.09-.09-.13-.11-.14-.23-.13-.39-.18-.51-.18-.1 0-.16.04-.22.09-.01 0-.022.01-.022.01.57.24.91.38.86.21m.87.02c.07-.01.14-.01.21-.01.35 0 .622.13 1.04.41-.06-.2.02-.23.33-.41-.04-.01-.11-.04-.148-.05-.35-.11-.6-.13-.89-.14-.47-.03-.65-.07-1.05-.22.43.3.26.37.17.39-.13.03-.26-.03-.3-.05.24.14.31.15.64.11m2.3 3.49c.46.31.26.35.12.38-.15.03-.22.04-.23.11.45.05.72-.01 1.36-.14-.202-.09-.44-.04-.63-.17-.06-.04-.252-.19-.03-.28.27-.1.3-.12.05-.22-.36-.15-.41-.07-.44 0-.07.13-.18.11-.75-.25-.02.07-.06.07-.24-.02.03.06.14.09.14.09.06.02.44.27.43.33-.04.01-.08.01-.35-.06-.3-.08-.55-.15-.5-.03.348.16.948.43 1.04.29m2.86-24.27c-.02-.04-.03-.09-.05-.12-.46-.76-1.47-.47-2.14-.28-.33.09-.52.14-.67.13.69.59 1.52.67 2.86.26m-4.89 2.82c.73.55 1.51.32 1.83-.01-.12-.2-.29-.14-.46-.08-.11.03-.2.07-.29.05-.07-.19-.02-.25.28-.25.31 0 .43-.03.35-.25.11.02.11.02.35.49.44 0 .5-.28.53-.66.03-.37.05-.46.17-.61l-.07-.11c-.32-.44-.73-.35-.76.05-.01.07 0 .15.01.22-.56-.3-.92-.98-1.23-1.66-.1.02-.18-.01-.26-.05-.09-.04-.18-.07-.28-.04.14.46.14.46.16.88.01.4.08.6.26.95-.422-.15-.282-.58-.44-.86l-.09-.02c-.03.01-.05.02-.11.06.68 1.13.49 1.35.03 1.9m2.11-3.75c-.76-.58-1.59-.65-2.74-.73.13.19.39.6.94.76.22.05.41.07.63.08.21 0 .43-.01.64-.03.2-.01.4-.03.6-.02-.022-.02-.06-.04-.08-.06m15.67 23.23c.02 0 .06.01.12-.01.08-.03.148-.08.23-.1 0-.02-.01-.02-.022-.03-.17-.15-.3-.17-.4-.17.08.09.22.25.11.24-.05-.01-.16-.07-.21-.1.032.06.07.16.17.17m8.62-74.53c-.74 2.02-2.97 3.11-3.398 5.34-4.23 2.61-4.23 2.61-5.79 2.05-1.98 1.422-3.32 3.482-5.1 5.1l.36.622c-.17.09-.39.2-.57.28-.06-.21-.14-.48-.21-.69-.63.78-1.73.82-2.42 1.51-.06-.4-.35-.88-.62-1.16-1.93.7-1.93.7-3.44.75-.21 1.09-1.29 1.48-1.83 2.3-.11-.38-.33-.88-.58-1.19-.15.4-.3.95-.36 1.37-.05 0-4.25-.58-4.51-2.72-.35-.21-.77-.56-1.04-.87-3.37 1.23-3.37 1.23-3.83 1.07-2.17 1.16-2.64 4.58-.93 6.92.03.2.04.41.06.62-.56.68-.56.68-4.79 2.16 1.11 1.86 1.45 4.04 2.49 5.92-.99.54-3.34 1.49-3.81-1.54-.39-.13-.39-.13-2.5-.52-3.13 3.52-.38 12.97 3.6 12.33.96-.15 1.86-.78 2.53-1.24.97.52 1.92.34 2.88.15.61-.12 1.21-.25 1.82-.18l.45-5.48c-.32-.23-.75-.57-1.06-.82 3.27-.77 2.73 3.28 2.56 4.6-.22 1.61-.22 1.61 3.22 5.16l.69-.12.11.12c-.17.07-.32.148-.47.22-.14.07-.02.28.12.21.16-.083.33-.16.51-.23 3.78 4.49 3.8 4.53 4.88 6.52.37.01.87.02 1.24.037.1.15.22.35.32.5.35.01.83-.06 1.16-.17.17.1.4.23.56.34l-.42.47c.47 1.01 1.01 2.16 4.75 2.54l-.2-.09c-.26-.32-.5-.84-.58-1.25.44 0 1.04.15 1.43.35 5.16-2.86 4.96 1.77 4.77 3.27 1.55-.13 1.55-.13 2.15-.25.04-.17.11-.4.16-.57l-.03-.21c.38.12.87.37 1.18.61.05-.2.11-.47.16-.68.17-.06.41-.15.59-.21.31.3.6.82.73 1.22-.16.09-.38.2-.53.29.33.93.33.93-2.03 2.01.15.36.41.8.652 1.09l-.89-.01c-.89-.99-1.452-2.25-2.51-3.09-1.07 2.15-3.052.65-4.11-1.09.04.43.19 1 .36 1.4-.18.01-.422.03-.602.04.39.17.86.49 1.16.78l-.37.52c-1.04.18-1.4.24-3.06-.5.24.32.73.66 1.13.74l.26-.02.45.56c6.93.67 6.93.67 8.27 1.5.08.45.14.89.21 1.33-2.44 1.54-2.44 1.54-3.68 6.78-1.42-1.46-1.73-1.5-2.56-1.6-.49.53-.67.73-.11 1.81-1.14 1.76-1.14 1.76-3.31 2.1-1.75-2.56-1.75-2.56-2.22-2.9.98-2.8-2.52-3.43-2.55-3.43-.56-1.91-.56-1.91-1.71-2.85-.11.18-.28.42-.39.6.29.24.56.71.63 1.08-.13.16-.31.37-.45.53.21.36.5.82.74 1.15-1.32.79-1.84 2.36-3.14 3.15-.13.72.12 1.42.12 2.14.43.43.43.43 7.8 3.83l-.28-.24c-.97-.82-.97-.82-1.65-1.28.09-.17.2-.4.28-.57.37.03.83.17 1.16.32.33-.2.83-.38 1.22-.45.07.8-.29 1.58-.1 2.38v-.59c.62.64 1.65.66 2.182 1.44.16-.07.38-.16.54-.23-.01-.01-.39-1.64-1.13-2.35 2.22-1.18 2.22-1.18 2.41-2.1.648-.16 1.218-.53 1.848-.78.05.19.13.44.17.63-.09.16-.21.38-.3.55.35-.15.77-.44 1.05-.7.28.24.66.55.94.78-.71 1.93-.71 1.93-.71 2.19.34-.22.73-.65.91-1.02.66.02.66.02 1.79.9-.42.8-1.23 1.27-1.69 2.04.12.14.28.33.39.47-.1.43-.1.43-1.63 2.41.05.2.13.46.19.66-.04.02-4.49 1.9-5.34-1.32.13-.13.32-.29.45-.42-.28-.36-.72-.77-1.08-1.04-.18.04-.41.1-.58.15.1.16.22.37.32.52-.57 1.46-.38 1.55 2.9 2.94-.71.61-.71.61-3.66.14l-.31-.54c.14-.11.34-.26.48-.37-.767-.76-.767-.76-2.23-1.02.83 2.1.83 2.1 2.4 2.64l-.5.39c-.42-.21-.98-.52-1.386-.76l.67.46-.32.52c.197.38.48.86.737 1.2-.03.06-.07.13-.09.19-.45.15-1.02.33-3.3-.78.17-.13.41-.3.58-.44.26.06.62.15.89.17-1.07-.34-1.07-.34-1.72-.76.02-.17.05-.41.06-.59-1.25.09-1.35-.14-1.72-1.02-.07.35-.06.85.03 1.2-.14.11-.34.25-.48.36.16.07.38.17.54.24l.37.18-.61-.14c.14.14.32.32.45.46-.3.304-.81.61-1.2.77 1.16.99 2.49 1.74 3.68 2.68-.19.04-.33.06-.48.06-.46 0-1.05-.23-3.35-1.13.14.07.29.15.45.22.16.06.38.15.55.21-2.45-.79-6.67-3.11-8.26-3.98h-.02c-.63-.37-1.45-.88-2.06-1.26l.14.08.67.33.34.21.6.31c-.26-.19-.58-.37-.9-.56.19.04.44.07.63.1-1.67-1.53-3.25-3.16-4.98-4.64.38.26.88.62 1.25.894-2.59-2.53-2.59-2.53-2.63-2.69-.36-.29-.73-.57-1.09-.87-12.02-17.21-12.02-17.21-12.55-18.53-1.03-2.52-.2-5.31-1.1-7.85-1.4-3.93-.09-7.22-.07-7.243.82 9.36.82 9.36 1.07 10.07.14-.14.33-.33.47-.48-3.24-15.19 2.56-19.85 4.46-21.38.19.08.44.18.64.24 2.06-1.53 6.74-7.76 6.78-7.82-.02-.48-.05-.96-.06-1.45 1.41-.69 2-2.36 3.5-2.96-.02-.18-.05-.42-.06-.59.35-.13.8-.36 1.11-.56.11.15.27.34.38.49-.09.16-.21.39-.3.55.26.25.7.52 1.05.64.17-.33.44-.73.68-1.01 1.09-4.79 1.09-4.79-.7-7.81-.19-.03-.43-.08-.61-.12-.1-1.16-.47-2.29-.42-3.47.35-.23.75-.61 1.01-.92l-.66-.34c-.48-1.56.05-2.54.06-2.55 1.65-2.81 4.66-4.63 5.7-7.88.02-.07.02-.07 5.57-4.55 4.98-4.02-.7-12.52 6.56-15.58l-.39.48c.33-.19.72-.54.94-.85-.2.04-.47.09-.67.13 1.02-.99 1.02-.99 1.43-1.13.12-.19-.01-.17-.15-.14 2.13-1.28 4.5-2.02 7.03-2.19-2.32.75-2.32.75-2.94 1.91-.17.04-.4.09-.57.13.17.35.27.86.26 1.24.19-.03.43-.08.6-.12-.29.2-.75.39-1.1.43.39.177.96.29 1.39.3l.08.65c1.94.16 1.95.18 2.77.78-.07.24-.17.56-.23.79 3.44 1.51 3.44 1.51 5.86 4.44-.25 1.97-.25 1.97 6.43 3.75.56.98 1.35 1.83 1.89 2.82.21.56.37.56.54.56.14 3.59 3.04 5.76 4.48 8.69.72 1.48.4 2.44-.06 3.78-4.89.02-8.5 3.78-13.14 4.54"/>
    </g>
    <path fill="#4490CC" d="M18.976 144.513H39.77v-8.24H28.356v-5.706h11.068v-8.24h-11.07v-6.303H39.77v-8.24H18.977v36.73zm36.277-17.173l-11.366 17.173h10.62l6.304-10.472 6.11 10.48h10.57l-11.21-17.37 12.71-19.35H68.36l-7.94 13.01-7.544-13H42.398l12.855 19.56v-.02zm36.97.2h3.424c.893 0 2.382 0 3.625.545 1.24.546 2.233 1.69 2.233 3.87 0 2.185-1.043 3.228-2.335 3.775-1.29.544-2.828.544-3.87.544h-3.076v-8.735zm2.63 16.973c6.8 0 9.33-1.042 11.316-2.68 2.87-2.382 4.31-6.004 4.31-9.727 0-3.722-1.54-7.643-3.87-9.63-2.53-2.133-5.01-3.175-10.72-3.175h-3.67v-11.5h-9.38v36.73h12.01v-.01zm27.342-18.313c0-5.608 3.82-10.87 10.125-10.87 6.65 0 9.875 6.057 9.875 10.77 0 4.764-3.224 10.87-9.975 10.87-6.5 0-10.025-5.56-10.025-10.72v-.05zm-9.38-.448c0 12.01 9.232 19.457 19.356 19.457 11.32 0 19.41-8.84 19.41-19.06 0-10.23-8.04-19.06-19.45-19.06-11.56 0-19.3 9.18-19.3 18.61v.05h-.01zm43.82 18.76h12.01c5.757 0 9.332-1.04 11.365-2.63 3.078-2.38 4.466-6.005 4.466-10.024 0-2.828-.793-5.012-1.835-6.65-1.24-1.937-3.02-3.177-4.76-3.92l7.6-13.503h-9.68l-9.58 17.72h1.54c2.39 0 4.42.198 5.66.99 1.14.747 2.09 2.484 2.09 4.52 0 1.934-.94 3.473-2.18 4.267-1.04.646-2.53.992-3.82.992h-3.47v-28.49h-9.38v36.73l-.02-.002zm36.82-8.238h-7.245v8.24h23.822v-8.24h-7.196v-28.49h-9.38v28.49z"/>
    <path fill="#878787" d="M334.42 92.21h7.03v-1.363h-5.5v-4.86h5.46V84.6h-5.46v-6.226h-1.53V92.21zm26.833-6.918c0-3.252 2.445-5.793 5.682-5.793 3.272 0 5.663 2.63 5.663 5.79s-2.39 5.79-5.682 5.79c-3.254 0-5.663-2.58-5.663-5.78v-.02zm-1.555-.038c0 4.264 3.31 7.2 7.218 7.2 4.056 0 7.216-3.103 7.216-7.162 0-4.056-3.14-7.158-7.216-7.158-4.094 0-7.218 3.157-7.218 7.1v.02zm33.27 6.956h3.604c2.17 0 3.18-.26 3.89-.71 1.12-.673 1.89-2.15 1.89-3.72.018-.935-.243-1.924-.822-2.71-.83-1.124-1.82-1.385-3.09-1.516l3.43-5.18h-1.68l-3.912 6.038h.45c.97 0 2.32.02 3.06.713.73.71 1.04 1.55 1.04 2.544 0 1.02-.51 2.11-1.37 2.67-.69.45-1.56.5-2.81.5h-2.17V78.37h-1.55v13.84h.04zm29.582 0v-8.77c0-1.046 0-1.85.652-2.785.485-.69 1.402-1.156 2.41-1.156.992 0 1.908.45 2.374 1.14.658.91.658 1.71.658 2.8v8.77h1.53v-8.77c.022-1.6-.187-3.19-1.568-4.26-.768-.65-1.793-1.04-2.992-1.04-.973 0-2.188.28-3.046 1.05-1.458 1.18-1.574 2.75-1.574 4.26v8.77h1.556v-.01zm27.206-13.835V92.21h2.167l5.127-11.61 5.1 11.61h2.17V78.375h-1.46l.03 12.305-5.37-12.31h-.99l-5.38 12.3.03-12.312h-1.43l.006.017z"/>
    <path fill="#FFF" d="M333.67 92.96h7.03v-1.363h-5.5v-4.86h5.46V85.35h-5.46v-6.226h-1.53V92.96zm26.833-6.918c0-3.252 2.445-5.793 5.682-5.793 3.272 0 5.663 2.63 5.663 5.79s-2.39 5.79-5.682 5.79c-3.254 0-5.663-2.58-5.663-5.78v-.02zm-1.555-.038c0 4.264 3.31 7.2 7.218 7.2 4.056 0 7.216-3.103 7.216-7.162 0-4.056-3.14-7.158-7.216-7.158-4.094 0-7.218 3.157-7.218 7.1v.02zm33.27 6.956h3.604c2.17 0 3.18-.26 3.89-.71 1.12-.673 1.89-2.15 1.89-3.72.018-.935-.243-1.924-.822-2.71-.83-1.124-1.82-1.385-3.09-1.516l3.43-5.18h-1.68l-3.912 6.038h.45c.97 0 2.32.02 3.06.713.73.71 1.04 1.55 1.04 2.544 0 1.02-.51 2.11-1.37 2.67-.69.45-1.56.5-2.81.5h-2.17V79.12h-1.55v13.84h.04zm29.582 0v-8.77c0-1.046 0-1.85.652-2.785.485-.69 1.402-1.156 2.41-1.156.992 0 1.908.45 2.374 1.14.658.91.658 1.71.658 2.8v8.77h1.53v-8.77c.022-1.6-.187-3.19-1.568-4.26-.768-.65-1.793-1.04-2.992-1.04-.973 0-2.188.28-3.046 1.05-1.458 1.18-1.574 2.75-1.574 4.26v8.77h1.556v-.01zm27.206-13.835V92.96h2.167l5.127-11.61 5.1 11.61h2.17V79.125h-1.46l.03 12.305-5.37-12.31h-.99l-5.38 12.3.03-12.312H449l.006.017zM214.2 144.513h4.12V111.41h13.996v-3.625H214.2v36.728zm21.982 0h20.348v-3.622h-16.28v-12.75h16.18v-3.62h-16.178v-13.11h16.277v-3.62h-20.35v36.73zm40.742-4.615l-7.295-18.415h14.64l-7.34 18.415h-.01zm-12.754-32.113h-4.42l15.33 36.728h3.97l15.18-36.728h-4.47l-4.27 10.325h-17.12l-4.22-10.325h.02zm38.21 3.626h7.288c9.43 0 14.34 5.81 14.34 14.64 0 4.27-1.14 8.04-3.57 10.72-2.34 2.49-5.76 4.12-10.78 4.12h-7.3v-29.48h.02zm-4.07 33.11h10.97c5.21 0 10.77-1.14 14.44-5.51 2.97-3.27 4.41-7.59 4.41-12.8 0-11.06-6.31-18.41-18.66-18.41H298.3v36.73h.01zm61.98 0h9.58c5.75 0 8.43-.69 10.32-1.88 2.98-1.78 5.01-5.71 5.01-9.87.05-2.48-.65-5.11-2.19-7.19-2.19-2.98-4.82-3.67-8.19-4.02l9.13-13.75h-4.47l-10.38 16.03h1.19c2.58 0 6.15.05 8.13 1.89 1.94 1.89 2.78 4.12 2.78 6.75 0 2.73-1.34 5.61-3.62 7.1-1.84 1.19-4.12 1.34-7.45 1.34h-5.75V107.8h-4.12v36.73l.03-.008zm31.81-26.5c.59-6.1 5.06-7.39 7.34-7.39 3.82 0 7.34 2.93 7.34 7 0 5.16-4.42 6.3-8.68 7.69-2.98.9-9.38 2.78-9.38 9.73-.1 6.5 5.31 10.13 10.91 10.13 4.56 0 9.82-2.53 10.42-9.48H406c-.446 2.38-1.637 6.01-6.5 6.01-3.675 0-6.702-2.48-6.702-6.3-.05-4.46 3.575-5.56 9.133-7.44 3.48-1.34 8.93-3.276 8.93-10.025 0-6.005-4.51-10.77-11.36-10.77-6.15 0-11.27 3.87-11.51 10.87h4.12zm24.26-10.22v36.73h4.06V128.2h17.72v16.33h4.12V107.8h-4.12v16.776h-17.72v-16.78h-4.07.01zm33.24 36.73h4.07V107.8h-4.07v36.727zm15.23-18.66h5.85c3.08 0 4.96.35 6.8 1.54 1.59 1.04 2.73 3.38 2.73 5.96 0 2.63-1.14 4.96-2.78 6.01-1.84 1.19-3.72 1.54-6.85 1.54h-5.76v-15.04h.01zm5.56 18.66c5.16 0 7.59-.59 9.87-2.33 2.43-1.88 3.92-5.3 3.92-8.73 0-3.47-1.54-7-3.77-8.73-2.43-1.88-4.92-2.48-9.68-2.48h-5.91V107.8h-4.12v36.73h9.68l.01-.008zm-116.37-20v3.62H343.6c-.56-1.2-1.14-2.41-1.75-3.62h12.18-.01zm-20.25-16.73h20.35v3.63h-16.28V117c-1.29-2.27-2.65-4.533-4.07-6.796v-2.415zm15.08 33.11h5.27v3.63h-4.04c-.39-1.2-.8-2.41-1.232-3.62"/>
    <path fill="#EE3156" d="M282.747 196.663c16.778 8.215 32.396 9.392 42.79 1.553 20.517-15.478 12.875-60.207-17.07-99.9-29.003-38.446-68.298-58.07-89.38-45.2.6-.557 1.222-1.072 1.873-1.565 21.48-16.21 64.31 4.34 95.66 45.91 31.35 41.57 39.36 88.4 17.87 104.61-12.3 9.29-31.62 6.49-51.76-5.39"/>
  </g>
</svg>
